<svg id="Group_68" data-name="Group 68" xmlns="http://www.w3.org/2000/svg" width="58.565" height="56.178" viewBox="0 0 58.565 56.178">
  <path id="Path_132" data-name="Path 132" d="M749.913,162.363a11.391,11.391,0,0,0,15,4.128,11.165,11.165,0,0,0,4.816-4.953c-.275.138-.413.275-.688.413a9.356,9.356,0,1,1-8.806-16.511c.138,0,.138-.138.275-.138a12.219,12.219,0,0,0-6.192,1.238,11.427,11.427,0,0,0-4.816,5.091,14.253,14.253,0,0,1,7.017-8.255,14.771,14.771,0,1,1-6.192,19.95A6.711,6.711,0,0,0,749.913,162.363Z" transform="translate(-732.439 -141.635)" fill="#8c704d"/>
  <path id="Path_133" data-name="Path 133" d="M759.213,143.063a11.391,11.391,0,0,0,15,4.128,11.165,11.165,0,0,0,4.816-4.953c-.275.138-.413.275-.688.413a9.356,9.356,0,0,1-8.806-16.511c.138,0,.138-.138.275-.138a12.219,12.219,0,0,0-6.192,1.238,11.426,11.426,0,0,0-4.816,5.091,14.253,14.253,0,0,1,7.017-8.255,14.771,14.771,0,1,1-6.192,19.951A6.7,6.7,0,0,0,759.213,143.063Z" transform="translate(-728.943 -95.78)" fill="#8c704d"/>
  <path id="Path_134" data-name="Path 134" d="M737.513,146.063a11.391,11.391,0,0,0,15,4.128,11.165,11.165,0,0,0,4.816-4.953c-.275.138-.413.275-.688.413a9.356,9.356,0,1,1-8.806-16.511c.138,0,.138-.138.275-.138a12.219,12.219,0,0,0-6.192,1.238,11.427,11.427,0,0,0-4.816,5.091,14.253,14.253,0,0,1,7.017-8.255,14.771,14.771,0,1,1-6.192,19.951C737.788,146.751,737.65,146.338,737.513,146.063Z" transform="translate(-737.1 -102.908)" fill="#8c704d"/>
</svg>
