<svg xmlns="http://www.w3.org/2000/svg" width="39.327" height="27.536" viewBox="0 0 39.327 27.536">
  <g id="youtube_2_" data-name="youtube (2)" transform="translate(-3 -77)">
    <path id="Path_206" data-name="Path 206" d="M38.517,4.309A4.927,4.927,0,0,0,35.051.842C31.973,0,19.663,0,19.663,0S7.353,0,4.276.81A5.028,5.028,0,0,0,.81,4.309C0,7.386,0,13.768,0,13.768s0,6.414.81,9.459a4.928,4.928,0,0,0,3.466,3.466c3.11.842,15.387.842,15.387.842s12.31,0,15.387-.81a4.927,4.927,0,0,0,3.466-3.466c.81-3.078.81-9.459.81-9.459s.032-6.414-.81-9.492Zm0,0" transform="translate(3 77)" fill="#141d4c"/>
    <path id="Path_207" data-name="Path 207" d="M204.969,113.993l9.991-5.754-9.991-5.754Zm0,0" transform="translate(-186.181 -17.501)" fill="#fff"/>
  </g>
</svg>
