<svg xmlns="http://www.w3.org/2000/svg" width="41.915" height="29.347" viewBox="0 0 41.915 29.347">
  <g id="youtube_2_" data-name="youtube (2)" transform="translate(0 0)">
    <path id="Path_206" data-name="Path 206" d="M41.051,4.592A5.251,5.251,0,0,0,37.357.9c-3.28-.9-16.4-.9-16.4-.9S7.837,0,4.557.864A5.359,5.359,0,0,0,.863,4.592C0,7.872,0,14.674,0,14.674S0,21.51.863,24.755A5.252,5.252,0,0,0,4.558,28.45c3.314.9,16.4.9,16.4.9s13.12,0,16.4-.863a5.251,5.251,0,0,0,3.694-3.694c.863-3.28.863-10.082.863-10.082s.035-6.836-.863-10.116Zm0,0" transform="translate(0 0)" fill="#fff"/>
    <path id="Path_207" data-name="Path 207" d="M204.969,115.537,216.3,109.01l-11.331-6.526Zm0,0" transform="translate(-188.417 -94.337)" fill="#141d4c"/>
  </g>
</svg>
