<svg xmlns="http://www.w3.org/2000/svg" width="221.032" height="335.785" viewBox="0 0 221.032 335.785">
  <g id="Group_51" data-name="Group 51" opacity="0.6">
    <path id="Path_202" data-name="Path 202" d="M484.087,488.5c5.9,12.5,12.8,28.1,13.4,43,4.9-7.1,9.6-14.4,14-21.8-9.6-9.9-15.4-25.9-21.8-37.6-5.6-10.3-23.2-39.2-20.7-41.2,1.8-1.5,24.2,25,29.5,34.1,2.9,5,6.1,10.6,8.9,16.5-.4-4.9-.8-9.6-1.4-14-1.4-10.8-6.2-41.6-3.5-42.3,1.9-.5,12.1,27.8,13.6,38.5,1.6,11,3.1,24.3.9,36.2a341.673,341.673,0,0,0,21.8-48.6c-9.8-6.3-17.2-18.3-24.1-27.1-6-7.7-23.8-30-21.7-32.4,1.7-1.9,23.8,17.1,29.2,23.5,6.9,8.3,15.4,19.2,18.5,30.6,2.9-8.5,5.4-17,7.7-25.7-10.5-5.2-19.2-16.7-27-24.9-6.7-7.1-26.6-27.7-24.7-30.3,1.5-2.1,25.4,14.8,31.3,20.7,7.8,7.8,17.6,18.1,21.6,29.5q3.15-13.35,5.4-27c-6.5-.5-11.2-5.4-15.6-9.5-4.2-3.8-13.3-15.6-11.2-18.2,2-2.4,12.9,3.5,17.3,7.6,3.9,3.7,8.6,8.7,10.4,14.3a371.574,371.574,0,0,0,3.5-41c0-.3.2-.5.3-.5.2,0,.3.2.3.5a373.459,373.459,0,0,1-2.6,41.2c2.8-12.9,8.2-25.7,11.8-37.9,3.7-12.8,14.5-47.7,15.3-47.6,2.6.5-2.2,39.4-6.3,53-4.2,13.8-9.5,32.4-20.7,42.9,3.1-6.4,6-13.1,8.5-19.7,5.8-15.3,13.5-48.6,13.5-48.6-.1,0-9.6,31.8-15.4,47.3-2.4,6.4-5.1,12.7-7.9,18.9-.3,2.4-.7,4.8-1.1,7.2,4.4-7.3,13-12.6,19.8-16.9,4.4-2.8,22-11.7,23.3-8.4,1.8,4.4-13,17.3-20.1,21.4-6,3.4-15.4,9.7-23,7.4,3-1.5,6.4-3.3,9.9-5.3,7.1-4.2,21.6-15.2,21.6-15.2-.1-.2-15.1,8.3-22.2,12.5-3.3,1.9-6.5,3.8-9.3,5.4-1.8,10.6-4.1,21.1-6.8,31.5,9.1-9.3,22.9-15.6,33.8-21.9,6.3-3.6,35.2-18.8,36.6-15.7,1.5,3.4-11,13.7-22.2,21.5-4.9,9.3-20.7,28.8-28.3,36-9,8.6-21.5,20.7-34.7,24a346.466,346.466,0,0,1-16.9,35.3c10.7-9.5,23.5-17.3,34.3-26,10.1-8.1,19.9-16.7,30-25,3.7-3,12.9-8.9,13.4-8.4,2.5,2.8-28,35.2-39.8,44.4-8.2,6.4-18,14.2-28.6,19.4,11-3.1,22.7-5,33.2-7.8,9.7-2.6,50.5-13.5,51.1-10.3,1.2,5.4-38.5,20.7-52.6,24-14.3,3.4-34.2,8.5-49.2,3.6-4.9,8-10.1,15.7-15.6,23.3,10.7-3.6,22.9-4.8,34.2-6.3,10.8-5.7,21.5-11.8,32.3-17.5,4.4-2.3,15-6.5,15.3-5.9,1.1,1.8-9.6,10.5-21.9,19.3,14.1-2.2,40.5-5.8,40.9-3.6.8,4.9-40.2,16.7-54.7,18.9-4,.6-8,1.1-12.1,1.4-.8.4-1.6.8-2.3,1.2-14.1,7-33.6,17.2-50.5,16.2-7.5,8.7-15.6,17-24,25,11.8-1.8,25,.1,36.3.7,7.3.4,39.8,3.4,39.2,6.7-.8,5.2-33,6.8-44.7,5.8-10.6-.9-26.3-1.7-35.7-8.7a366.91,366.91,0,0,1-40.1,31.6l-.1.1c-2.6,1.6-5.6,1.4-6.7-.4-1.1-1.9.1-4.6,2.6-6.2a362.228,362.228,0,0,0,49.9-39.2c-5.1-10-6.1-23.3-8-33.8-1.8-9.6-7.3-37.6-4.3-38.7,2.4-.9,13.3,26.1,15.1,34.3,2.1,9.8,4.4,22.1,2.7,33,5.3-5.2,10.3-10.5,15.2-16-3.7-15-2-32.8-3.1-47.9-.8-10.7-3.7-33-3.9-43.9-5.2-11.3-9.7-22-8.4-22.9C457.387,448.8,478.787,477.2,484.087,488.5Zm-4.1,74.9a176.986,176.986,0,0,1,20.4-10.3,40.257,40.257,0,0,1-10.4-2.3C486.687,555,483.387,559.2,479.987,563.4Zm13.8-26.7c-8.4-11.2-12.9-27.2-18.2-39.9a128.766,128.766,0,0,1,3.4,16.6c1.2,13.4,2.2,30-1.6,44.2C483.087,550.8,488.587,543.9,493.787,536.7Zm-3.2-20.8c-5.3-14.7-21-44.3-21.2-44.2,0,0,13.6,30.2,19,45.6,2.2,6.1,4.2,12.3,6,18.5.6-.8,1.2-1.6,1.8-2.5C494.487,527.4,492.587,521.5,490.587,515.9Zm22.9-9.8a8.652,8.652,0,0,0-.7-1.7v2.9A7.456,7.456,0,0,0,513.487,506.1Zm-6.9-15.9c-6.4-13.2-23.4-39.8-23.6-39.7,0,0,15,27.3,21.5,41.3,2.6,5.6,5.1,11.3,7.4,17,.2-.4.4-.7.6-1.1a51.915,51.915,0,0,1-3.4-12A54.5,54.5,0,0,0,506.587,490.2Zm7.9-2c-1-13.7-6.5-41.7-6.7-41.7,0,0,3.5,28.3,4.4,42.5.1,1.9.2,3.8.3,5.8a65.571,65.571,0,0,1,2,9.6c.1-.2.3-.5.4-.7C514.987,498.4,514.787,493.2,514.487,488.2Zm17.5-52.8c-7.1-9.8-24.7-29.3-24.9-29.1,0,0,15.8,20.7,23.2,31.1,3.2,4.5,6.2,9,8.9,13.1.3-.9.7-1.9,1-2.8C537.687,443.7,534.987,439.6,531.987,435.4Zm7.7-30.6c-8-9.1-27.4-26.9-27.5-26.7,0,0,17.7,19.2,26,28.8,3.8,4.4,7.3,8.7,10.4,12.6.2-1,.5-1.9.7-2.9C546.386,412.9,543.187,408.8,539.687,404.8Zm11-25.1a156.094,156.094,0,0,0-14.7-12.4s8.8,10,13.4,14.7c2.1,2.1,4,4.1,5.8,5.9.2-1,.3-2,.5-3C553.987,383.2,552.386,381.4,550.687,379.7Zm12.9,44.1c-5.5,2.7-10.7,5-15.4,7.1-3.1,11.5-6.7,22.9-10.9,34,7.8-9.2,18-17.3,26.3-25.4,2.8-2.7,8.8-8.6,15.1-14.5-9.3,4.9-20.9,10.1-30.9,8.7,4.9-1.9,10.5-4.3,16.2-7,12.1-5.8,35.8-21.2,35.8-21.2C599.586,405.2,575.586,418,563.586,423.8Zm-15.6,38.6c11.6-9.8,33-33.2,33-33.2-.1-.1-22.4,21.2-33.9,30.9-3.8,3.2-7.7,6.3-11.7,9.4-.5,1.3-1,2.5-1.5,3.8C538.687,469.9,543.487,466.2,547.987,462.4Zm24.4,9.8c-.1-.1-28.7,22.9-43.8,32.9q-7.2,4.8-14.7,9.3c-.7,1.2-1.4,2.5-2.2,3.7,6-3.3,11.9-6.9,17.5-10.6C544.087,497.7,572.386,472.2,572.386,472.2Zm-61.6,47.4c.4-.2.8-.4,1.3-.6-.3.1-.7.1-1,.2A1.38,1.38,0,0,1,510.787,519.6Zm19.7.8c16.8-2.8,51.9-14.2,51.9-14.2-.1-.3-34.5,8.4-51.5,11.4-6.8,1.2-13.7,2.2-20.7,3.1-.5.8-1,1.7-1.5,2.5C515.987,522.6,523.286,521.6,530.487,520.4Zm-38.4,27.5-1.8,2.4c5.8,0,11.6-.2,17.4-.5,2.4-1,4.7-2.1,7-3.2-.7.1-1.5.1-2.2.2C505.687,547.3,498.887,547.7,492.087,547.9Zm72.8-7.6c0-.1-12.5,1.7-22.4,3.1-1.5,1-2.9,1.9-4.3,2.8C549.886,543.9,564.886,540.3,564.886,540.3Zm-68.8,21.9c17-6.7,51.6-27.1,51.6-27.1-.1-.2-34.1,17.5-51.7,24.6-6.1,2.4-12.4,4.8-18.7,6.9-.9,1-1.8,2.1-2.7,3.1C481.887,567.5,489.087,564.9,496.087,562.2Zm-34.9,39.2c13.4,1.6,41.7,1.6,41.7,1.6,0-.2-27.2-2.6-40.5-4.1-5-.6-9.7-1.3-14.1-1.9-.8.7-1.5,1.4-2.3,2.1C450.687,599.9,455.787,600.8,461.187,601.4Zm-8.5-31.5c-1.7-12-8.3-37.5-8.6-37.4,0,0,4.5,25.8,6.1,38.4.6,4.8,1.1,9.4,1.6,13.8.8-.7,1.5-1.4,2.3-2.2C453.787,578.4,453.387,574.2,452.687,569.9Zm20.6-26.7c-.1,6.6-.4,13.4-1,20.2.8-.9,1.7-1.9,2.5-2.8.5-6,.8-12,.9-17.9.2-16.2-4.7-50.6-4.8-50.6C470.787,492,473.587,526.3,473.287,543.2Z" transform="translate(-397.777 -297.1)" fill="#f0f0f0"/>
    <path id="Path_203" data-name="Path 203" d="M500.26,349.7c-3.5-6.4-11.6-18.9-11.6-18.9s7.3,13,10.8,19.5c1.7,3.1,3.2,6.1,4.5,8.8-4.9-4.9-8.4-12.1-11.8-18-3.5-6.1-10.9-19.6-10.1-20.2,0,0,10.5,11.5,13.8,16.9,3.6,6.1,7.8,13.4,8.9,20.7C503.46,355.9,501.96,352.8,500.26,349.7Z" transform="translate(-367.951 -297.1)" fill="#f0f0f0"/>
  </g>
</svg>
