<svg xmlns="http://www.w3.org/2000/svg" width="563.215" height="435.79" viewBox="0 0 563.215 435.79">
  <g id="Group_48" data-name="Group 48" transform="translate(-288.482 -650.955)" opacity="0.6">
    <g id="Group_38" data-name="Group 38" transform="translate(288.482 790.194)">
      <g id="Group_37" data-name="Group 37">
        <path id="Path_142" data-name="Path 142" d="M584.05,840.886c-85.215,36.232-180.842,28.476-258.938-21.357a.424.424,0,0,1-.213-.425.323.323,0,0,1,.425,0c78.1,47.814,172.661,53.976,256.388,16.682,2.125-.956,4.463-.744,5.206.744s-.531,3.4-2.763,4.463C584.157,840.78,584.157,840.886,584.05,840.886Z" transform="translate(-286.205 -779.685)" fill="#f0f0f0"/>
        <path id="Path_143" data-name="Path 143" d="M346.2,836.847c-12.325-2.869-37.507-12.432-37.507-12.432,0-.106,24.863,7.969,37.4,10.838,5.419,1.275,10.944,2.444,16.469,3.4-11.05-5.95-24.757-8.182-36.657-11.9-8.713-2.869-17.425-5.95-26.244-8.819-3.294-1.062-10.944-2.55-11.157-2.231-.85,2.231,27.2,15.725,37.4,18.913,10.838,3.4,24.969,7.969,36.763,5.631C357.247,839.184,351.615,838.122,346.2,836.847Z" transform="translate(-288.482 -779.895)" fill="#f0f0f0"/>
        <path id="Path_144" data-name="Path 144" d="M341.513,824.014c-5.1-4.994-15.088-15.3-15.088-15.3s9.244,10.838,14.238,15.832c2.444,2.444,4.781,4.569,7.013,6.588-6.375-3.081-12.007-9.031-16.575-14.025C326.956,812.645,319.2,800,319.2,800c.638-.425,11.157,10.094,15.832,15.088,4.463,4.781,10.094,9.881,13.388,15.619C346.294,828.689,343.957,826.458,341.513,824.014Z" transform="translate(-286.562 -780.875)" fill="#f0f0f0"/>
        <path id="Path_145" data-name="Path 145" d="M359.3,844.5c-5.631,2.55-18.7,6.694-18.7,6.694-.106-.213,11.794-5.738,17.213-8.181,2.763-1.275,5.419-2.444,7.756-3.506-6.694-.744-14.132,2.338-20.082,4.781-3.4,1.381-16.469,8.288-14.875,10.519,2.231,3.081,16.363-.531,22.207-3.188,4.569-2.125,12.644-5.206,14.132-10.838C364.609,841.95,362.059,843.225,359.3,844.5Z" transform="translate(-285.857 -778.411)" fill="#f0f0f0"/>
        <path id="Path_146" data-name="Path 146" d="M365.351,867.638c0-.106,18.275-2.231,27.307-3.506l-.106.106a24.649,24.649,0,0,0,7.438-.956h.213c.213-.106.319-.319.531-.425,3.4-.638,6.906-1.275,10.413-2.125,6.481-1.381,12.857-3.081,19.232-4.888-8.394-.425-17.107,1.7-25.394,2.975,2.444-2.55,3.825-4.675,4.038-5.844-2.763,2.125-5.844,4.356-9.138,6.588-1.806.213-3.613.531-5.419.744q6.535-4.144,12.75-8.606c-7.756,1.488-15.3,6.269-22.313,9.775h-.319c-10.838,1.275-21.888,2.019-32.726,3.188-3.4.319-12.963,2.125-12.857,2.975.319,2.338,18.594,3.931,25.819,4.144-6.056,3.188-26.776,14.663-25.394,17.107,2.444,4.25,32.726-7.65,41.864-12.75,3.613-1.912,6.906-4.144,9.988-6.163,12.325-2.019,30.495-3.931,40.376-12.75-6.269,2.019-12.75,3.825-19.125,5.206C397.652,865.619,365.351,867.638,365.351,867.638Zm-5.631,12.857c-.106-.106,10.519-6.056,15.725-8.925l5.1-.319C374.063,874.544,359.719,880.494,359.719,880.494Z" transform="translate(-285.324 -777.642)" fill="#f0f0f0"/>
        <path id="Path_147" data-name="Path 147" d="M402.64,845.808c4.781,4.144,9.881,8.181,14.982,12.219-5.844-10.944-18.807-20.082-27.413-28.9-.956-3.294-2.019-6.8-3.188-10.307-2.763-8.925-9.669-34.532-12.644-34.32-2.656.213-.744,22.207.425,28.263-4.038-4.463-13.813-14.769-15.088-14.132-2.55,1.275,15.619,28.157,21.038,34.107.106.106.106.213.213.213,2.869,7.013,6.375,15.088,12.113,20.188-2.125-4.569-4.144-9.244-5.844-13.919l3.825,3.506c1.488,3.613,2.869,7.119,4.25,10.2.425-1.169.212-3.613-.531-7.119,6.481,5.1,13.282,10.625,21.144,13.282-5.206-3.825-10.307-7.863-15.194-12.113-2.656-2.338-5.1-4.569-7.438-6.8-.106-.213-.106-.425-.213-.638l-.106-.106a29.342,29.342,0,0,0-4.994-4.569.1.1,0,0,0,.106.106c-5.419-5.738-15.513-18.7-15.513-18.7C372.677,815.951,392.015,836.67,402.64,845.808Zm-18.913-23.482c-.956-1.062-2.019-2.125-2.975-3.188-1.275-5.313-3.188-16.15-3.188-16.15C377.777,802.988,381.709,815.951,383.727,822.326Z" transform="translate(-284.044 -781.844)" fill="#f0f0f0"/>
        <path id="Path_148" data-name="Path 148" d="M359.073,831.061c-9.138-7.863-26.457-25.076-26.457-25.076-.106.106,16.363,18.382,25.076,26.032,4.038,3.506,8.394,7.013,12.857,10.2-11.475-4.038-21.676-13.919-29.857-22.207-6.269-6.269-21.251-28.369-20.188-29.007,1.806-1.275,19.551,17.957,26.776,25.182,7.863,7.863,18.488,15.619,24.438,25.182C367.361,837.967,363.11,834.567,359.073,831.061Z" transform="translate(-286.483 -781.441)" fill="#f0f0f0"/>
        <path id="Path_149" data-name="Path 149" d="M443.331,849.483c-4.463-8.075-13.388-24.969-13.388-24.969-.213.106,7.225,17.744,11.369,25.394,2.125,3.931,4.463,7.65,6.481,10.944-8.075-5.1-13.282-15.619-17-23.694-2.444-5.313-8.288-25.819-6.269-26.457,2.55-.744,11.9,17.957,15.194,24.438,3.719,7.331,9.669,16.575,9.882,25.182C447.688,857.134,445.456,853.415,443.331,849.483Z" transform="translate(-280.002 -780.207)" fill="#f0f0f0"/>
        <path id="Path_150" data-name="Path 150" d="M436.25,851.458c-9.35-6.163-27.307-19.551-27.307-19.551-.106.106,17,14.663,25.926,20.613,4.25,2.763,8.713,5.419,13.175,7.863-11.263-2.019-22.1-9.988-30.6-16.575-5.206-4.038-22.526-22.632-21.038-23.8,2.125-1.7,20.507,13.707,27.732,19.125,8.075,6.056,18.913,12.113,25.182,20.294Q442.625,855.6,436.25,851.458Z" transform="translate(-281.74 -779.632)" fill="#f0f0f0"/>
        <path id="Path_151" data-name="Path 151" d="M500.932,848.355c-6.269-6.8-18.913-21.144-18.913-21.144-.106.106,11.263,15.619,17.107,22.1,3.081,3.294,6.163,6.375,8.925,9.138-9.138-3.081-16.682-12.113-22.313-19.019-3.613-4.569-14.132-23.269-12.325-24.226,2.338-1.275,15.938,14.663,20.613,20.188,5.313,6.269,13.388,13.919,15.619,22.207C506.988,854.73,504.013,851.649,500.932,848.355Z" transform="translate(-276.932 -779.928)" fill="#f0f0f0"/>
        <path id="Path_152" data-name="Path 152" d="M494.441,851.873c-10.519-3.825-31.345-12.644-31.345-12.644,0,.106,20.082,10.307,30.176,14.025a139.778,139.778,0,0,0,14.769,4.569c-11.475.638-24.013-4.463-34-9.031-6.056-2.763-27.2-16.788-26.138-18.276,1.7-2.125,23.269,8.606,31.557,12.219,9.35,4.038,21.463,7.331,29.538,13.813C504.216,855.167,499.222,853.573,494.441,851.873Z" transform="translate(-278.517 -778.984)" fill="#f0f0f0"/>
        <path id="Path_153" data-name="Path 153" d="M460.718,877.694c-10.307,12.963-36.976,37.4-36.976,37.4-.213-.213,24.226-24.863,34.851-38.145,4.569-5.738,9.138-11.688,13.388-17.85-13.388,9.988-24.226,25.182-35.913,36.976-8.606,8.713-17.638,17-26.351,25.713-2.763,2.763-9.563,10.838-8.713,11.582,1.381,1.275,12.113-4.994,16.682-8.075a173.832,173.832,0,0,0,29.007-25.288c9.881-10.519,24.013-25.288,27.094-40.376C469.75,865.9,465.287,871.957,460.718,877.694Z" transform="translate(-281.451 -777.179)" fill="#f0f0f0"/>
        <path id="Path_154" data-name="Path 154" d="M462.5,841.4c5.206,6.8,10.625,14.132,17.85,18.913-4.356-5.206-8.394-10.519-12.325-16.044C466.219,843.206,464.2,842.356,462.5,841.4Z" transform="translate(-277.601 -778.286)" fill="#f0f0f0"/>
        <path id="Path_155" data-name="Path 155" d="M437.314,782c-2.019.638,9.138,33.47,14.557,43.67a160.6,160.6,0,0,0,8.5,14.132,2.412,2.412,0,0,1,3.081.106,19.4,19.4,0,0,0,1.7,1.381c-7.013-11.05-18.807-36.232-18.807-36.232.106-.106,14.344,25.926,22.632,38.357,1.381.744,2.869,1.381,4.356,2.125.319.106.531.319.85.425-4.781-7.65-9.563-15.3-14.025-23.057-5.419-9.457-10.519-19.338-15.619-29.113C442.414,789.863,437.527,782,437.314,782Z" transform="translate(-279.191 -782)" fill="#f0f0f0"/>
        <path id="Path_156" data-name="Path 156" d="M471.5,846.1c3.294,4.463,6.588,8.819,10.094,13.069-.319-1.7-2.338-5.525-5.525-10.625A18.926,18.926,0,0,1,471.5,846.1Z" transform="translate(-277.039 -777.992)" fill="#f0f0f0"/>
        <path id="Path_157" data-name="Path 157" d="M457.333,866.65c-10.944,4.569-35.17,11.156-35.17,11.156,0-.106,22.844-7.863,33.895-12.432Q463.23,862.347,470.4,859c-11.794,1.381-23.588,7.013-34.745,10.732-8.181,2.656-33.576,11.582-33.257,12.644.638,2.444,29.432-2.975,39.1-6.269,9.563-3.294,23.269-7.65,30.069-16.044A155.829,155.829,0,0,1,457.333,866.65Z" transform="translate(-281.359 -777.185)" fill="#f0f0f0"/>
        <path id="Path_158" data-name="Path 158" d="M514.565,862.513c-9.775,6.906-32.088,18.594-32.088,18.594,0-.106,20.826-12.75,30.6-19.55,4.25-2.975,8.5-6.163,12.75-9.457-11.263,4.038-21.676,12.113-31.876,18.169-7.438,4.463-30.388,18.594-29.751,19.657,1.169,2.231,28.263-9.35,36.87-14.663,8.713-5.313,21.251-12.538,26.138-22.313C523.065,856.244,518.815,859.431,514.565,862.513Z" transform="translate(-277.496 -777.617)" fill="#f0f0f0"/>
        <path id="Path_159" data-name="Path 159" d="M523.281,866.013c-5.313,8.606-19.019,25.607-19.019,25.607-.106-.106,11.475-17.319,16.894-26.032,2.55-4.144,4.888-8.182,7.013-11.688-8.288,6.269-14.344,16.682-20.294,24.863-4.144,5.738-16.575,24.969-14.663,26.245,2.869,1.912,19.975-16.682,25.076-24.226,4.675-6.8,12.325-17.425,11.794-26.563C528.169,857.831,525.938,861.869,523.281,866.013Z" transform="translate(-275.694 -777.504)" fill="#f0f0f0"/>
        <path id="Path_160" data-name="Path 160" d="M372.572,835.513c-1.913-5.844-6.056-17.85-6.056-17.85a175,175,0,0,0,4.038,17.85c.85,2.869,1.806,5.525,2.763,7.863-5.1-3.825-7.969-11.9-9.35-17.638-1.063-4.463-2.019-17.532.425-17.638,2.869-.106,7.331,12.325,8.925,17.85,1.381,4.675,4.356,12.432,1.806,17.425C374.378,840.932,373.528,838.276,372.572,835.513Z" transform="translate(-283.832 -780.368)" fill="#f0f0f0"/>
      </g>
    </g>
    <g id="Group_39" data-name="Group 39" transform="translate(562.293 650.955)">
      <path id="Path_161" data-name="Path 161" d="M584.013,697.694c-2.019-1.381-4.25-2.975-6.694-4.463-5.1-3.294-15.407-9.669-15.407-9.669s10.732,5.631,15.619,8.819c2.444,1.594,4.675,3.188,6.694,4.569-3.719-4.781-9.669-8.288-14.663-11.157C565.1,683.244,553.2,679.1,553.2,679.1c-.213.638,10.413,7.331,15.3,10.307C573.494,692.382,578.595,696.1,584.013,697.694Z" transform="translate(-545.741 -649.195)" fill="#f0f0f0"/>
      <path id="Path_162" data-name="Path 162" d="M633.584,681.922c-2.231-.744-8.075,18.488-9.563,24.013-1.488-5.95-6.163-20.719-8.182-20.613-.744.106-.425,8.288-.106,11.157,1.063,9.244,2.338,18.382,3.4,27.626v.319c-1.381,5.525-3.506,11.582-3.931,17.425a238.4,238.4,0,0,0-18.382-30.176c.425-2.019.956-4.356,1.488-6.694,1.063-4.888,3.506-15.725,3.613-15.725,0,0-1.063,11.582-2.125,16.682-.531,2.55-1.169,4.888-1.7,6.906,4.356-2.338,5.419-9.563,6.375-13.707,1.169-5.206,1.488-17.638-1.381-18.913-2.125-.956-5.525,11.156-6.057,14.238-.85,5.206-2.019,11.582-.425,16.894-.956-1.275-1.913-2.656-2.869-3.931-1.7-4.25-3.613-8.5-5.631-12.538-4.675-9.775-15.832-28.9-15.725-28.9,0,0,12.538,19.019,17.107,28.688,2.019,4.25,3.931,8.606,5.631,13.069-.213-10.2-6.588-20.932-11.369-29.326-4.463-7.863-20.719-28.582-22.419-27.413-.213.213,2.444,6.269,3.931,8.819,3.931,6.694,8.182,13.388,12.113,20.082,4.144,7.119,7.756,15.407,12.432,22.526a228.7,228.7,0,0,0-17.957-20.082.639.639,0,0,0-.425-.106c-.106.106,0,.213.106.319a239.051,239.051,0,0,1,37.295,50.9c-5.1-2.975-11.582-4.25-17.213-5.206a.371.371,0,0,1-.213-.106,139.5,139.5,0,0,0-13.175-5.95c2.762.425,5.738.744,7.65.85,4.144.319,11.05,1.381,14.769-1.7-2.125-.213-4.463-.425-7.013-.744-5.206-.531-15.832-1.806-15.832-1.806a151.933,151.933,0,0,1,15.513.106c2.444.213,4.888.531,7.013.85-4.038-3.506-11.263-4.463-16.257-4.463-3.825,0-14.875,1.594-14.557,3.506-5.419-1.913-9.775-2.975-9.988-2.019-.319,1.169,9.988,7.331,14.45,9.882-5.206.213-23.694,2.55-23.376,4.781.319,2.444,22.738,3.506,30.707,4.144,3.188.213,6.269.531,9.138.744,8.713,5.419,18.382,14.132,28.369,17.213,2.975,7.119,5.631,14.45,7.969,21.782-4.25-6.906-11.05-12.857-16.894-17.744-4.356-3.613-22.844-14.45-23.482-13.069-.956,2.019,15.088,14.45,20.825,19.444,3.931,3.4,7.969,7.544,12.325,11.156a85.5,85.5,0,0,0-12.857-3.719c-4.781-1.063-22.844-2.125-22.951-.319-.106,2.231,17,6.588,22.951,8.075,6.588,1.7,15.194,4.888,22.313,3.613a223.447,223.447,0,0,1,5.313,24.757c-4.569-3.719-10.094-6.269-15.407-8.713-5.631-5.631-12.644-11.9-13.282-11.05-1.488,1.806,11.369,17.638,15.832,23.8,3.081,4.25,6.056,9.35,9.457,13.919a83.528,83.528,0,0,0-11.688-6.694c-4.356-2.125-21.782-7.438-22.207-5.738-.638,2.125,14.982,10.413,20.4,13.388,5.738,2.975,12.75,7.756,19.551,8.713a237.53,237.53,0,0,1-4.675,55.889c-.425,2.019.213,3.825,1.488,4.144s2.763-1.062,3.188-3.081v-.106a236.346,236.346,0,0,0-1.7-95.84c7.013-5.95,10.519-17.319,13.388-25.394,2.869-8.181,7.438-32.62,5.419-33.151-.956-.213-8.5,21.251-10.838,28.157-2.869,8.713-7.013,17.85-8.713,26.988a216.292,216.292,0,0,0-9.563-30.176c4.994-9.775,3.4-24.544,2.869-34.851a86.854,86.854,0,0,0,3.294-9.35C633.159,710.292,637.621,683.091,633.584,681.922ZM566.432,730.9s9.35-.425,13.919-.319c1.063.638,2.125,1.275,3.188,1.806C577.907,731.967,566.432,731.011,566.432,730.9Zm53.445,1.7c.106,1.594.213,3.081.425,4.675-1.169,2.869-2.338,5.525-3.4,7.969-.319-.744-.744-1.381-1.062-2.125C617.221,739.618,618.6,736.111,619.877,732.6Zm-2.763,13.069a14.974,14.974,0,0,0,3.506-4.144c.319,4.356.319,9.031.85,13.6C620.089,751.943,618.6,748.755,617.114,745.674Zm-1.488,1.275A101.356,101.356,0,0,0,604.9,737.28a16.755,16.755,0,0,0,5.631-.637C612.227,740.043,613.927,743.549,615.627,746.949Zm-6.375-12.538c.319.638.744,1.381,1.063,2.019-2.763-.531-5.738-1.063-8.819-1.594-1.169-.85-2.338-1.7-3.613-2.55C601.708,732.817,605.533,733.561,609.252,734.411Zm-2.975,9.35c-9.457-7.013-30.176-19.232-30.069-19.444,0,0,12.538,5.95,18.276,9.457h-.106a26.744,26.744,0,0,0,4.675,3.294l.106.106h.638c2.231,1.488,4.569,3.081,6.906,4.888,3.506,2.55,6.8,5.206,10.094,7.969.531,1.063.956,2.125,1.488,3.294C614.458,750.03,610.421,746.736,606.277,743.761Zm13.069,28.263c-6.8-6.588-21.144-19.019-21.144-19.019.106-.106,15.194,11.369,21.782,17.638,2.55,2.444,4.994,5.1,7.438,7.756a12.836,12.836,0,0,1,.531,1.913c-.637-.531-1.381-1.063-2.019-1.594C623.7,776.487,621.577,774.15,619.346,772.025Zm8.819,9.031v.213c-.106-.106-.106-.213-.213-.213C628.058,780.95,628.058,781.056,628.165,781.056Zm-9.244-1.275c-7.438-2.231-23.057-6.481-23.057-6.481,0-.106,15.938,2.763,23.057,4.781,2.762.744,5.419,1.7,7.863,2.55.425.213.956.531,1.381.744.106.531.319,1.063.425,1.594C625.721,781.906,622.321,780.737,618.921,779.781Zm3.931,23.8c3.825,1.594,7.544,3.4,11.263,5.206l.319,1.913c-2.975-1.488-6.056-2.869-9.138-4.25l-.106-.106A21.573,21.573,0,0,0,622.852,803.582Zm-7.65-4.569c.106-.106,12.219,14.663,17.107,22.419,1.381,2.125,2.656,4.356,3.931,6.694.106.956.106,2.019.213,2.975-.106-.106-.106-.213-.213-.213-1.594-2.763-3.187-5.525-4.781-8.181C626.358,814.526,615.2,799.013,615.2,799.013Zm14.025,31.026c-6.694-3.931-20.932-11.794-20.932-11.794.106-.106,14.875,6.481,21.357,10.094,2.444,1.381,4.781,2.869,6.906,4.25,0,.638.106,1.275.106,2.019C634.327,833.12,631.777,831.526,629.227,830.039Zm6.694-6.588a85.951,85.951,0,0,0-8.5-14.132,56.6,56.6,0,0,0,7.119,2.125C635.071,815.376,635.6,819.413,635.921,823.451Zm3.294-39.845c3.931-9.35,10.519-28.794,10.625-28.794,0,0-5.631,20.613-9.563,29.963a128.64,128.64,0,0,1-5.419,11.688c-.106-.637-.319-1.381-.425-2.019Q636.984,788.866,639.215,783.606Zm-14.132-36.657q0,7.65-.637,15.3a32.474,32.474,0,0,0-1.381-3.4c.213-4.144.319-8.394.319-12.538,0-3.081-.106-6.056-.213-9.031.106-.213.213-.319.319-.531v-.213a25.444,25.444,0,0,0-.531-6.269v.106c-.531-7.65-2.125-23.163-2.125-23.163S624.977,734.2,625.083,746.949ZM626.465,719c-.213-1.488-.425-2.869-.637-4.25,1.381-4.781,4.463-14.663,4.569-14.557C630.4,700.2,628.058,713.054,626.465,719Z" transform="translate(-545.904 -650.955)" fill="#f0f0f0"/>
      <path id="Path_163" data-name="Path 163" d="M597.1,715.055q-5.259-4.463-10.838-8.606c-8.181-6.163-25.5-17.319-25.5-17.319,0-.106,18.169,10.094,26.032,16.044,3.613,2.763,7.331,5.631,10.838,8.713-5.419-8.819-15.407-15.407-23.8-20.613-6.269-4.038-27.307-12.325-27.626-11.369-.744,1.7,18.382,12.857,25.607,17.532C579.777,704.536,588.065,711.868,597.1,715.055Z" transform="translate(-546.18 -649.025)" fill="#f0f0f0"/>
    </g>
    <g id="Group_40" data-name="Group 40" transform="translate(417.066 912.215)">
      <path id="Path_164" data-name="Path 164" d="M461.8,942.5c-2.125-1.169-4.569-2.444-7.013-3.825-5.206-2.975-15.619-9.244-15.619-9.244s9.988,6.906,15.088,9.775c2.444,1.381,4.994,2.763,7.119,3.825-5.844-1.063-11.794-4.781-16.682-7.863C440.338,932.408,431.2,923.8,431.2,923.8c.425-.531,11.369,5.844,16.257,8.819C452.238,935.7,457.869,938.571,461.8,942.5Z" transform="translate(-408.142 -895.157)" fill="#f0f0f0"/>
      <path id="Path_165" data-name="Path 165" d="M501.727,976.593c2.55-2.444,4.781-4.888,6.8-7.225,9.35-4.25,23.269-9.669,29.645-18.594a219.244,219.244,0,0,0,31.132-5.419c-7.331,5.738-13.494,13.6-19.869,20.188-5.1,5.206-20.719,21.888-20.082,22.632,1.488,1.594,21.038-13.813,26.882-20.082,5.844-6.163,14.344-14.663,16.363-23.588a237.784,237.784,0,0,0,85.852-42.714.1.1,0,0,0,.106-.106c1.594-1.275,2.125-3.188,1.275-4.25-.85-.956-2.869-.744-4.356.531a237.1,237.1,0,0,1-47.389,29.963c-3.931-5.631-11.475-9.669-16.788-13.282-5.1-3.506-19.657-13.6-21.25-12.007-1.275,1.275,11.369,14.238,15.3,17.107a69.481,69.481,0,0,0,11.369,7.225c-5.631-.956-11.582-1.169-16.682-2.019-7.544-1.062-27.519-5.1-28.476-3.081-.425.956,8.288,4.25,15.938,6.694,4.569,3.506,9.457,7.331,14.769,9.669a244.477,244.477,0,0,1-24.438,6.694c-2.231-6.8-8.925-12.963-13.494-18.063-4.038-4.569-15.832-17.744-17.744-16.575-1.488.85,7.756,16.469,10.838,20.188a78.07,78.07,0,0,0,9.244,9.669c-5.206-2.231-10.838-3.931-15.619-5.844-7.013-2.869-25.5-11.369-26.882-9.563-.956,1.275,17.213,12.644,22.419,14.875,7.013,2.975,15.407,6.269,23.482,6.8-7.65,1.381-15.3,2.338-22.951,2.975-7.225-7.438-19.55-12.007-28.369-17.213-1.488-2.444-3.188-5.1-4.888-7.756-4.25-6.694-15.513-26.138-17.85-25.288-2.125.744,4.25,18.276,6.588,22.951-4.356-2.763-14.557-9.031-15.407-8.288-.744.638,2.231,4.038,6.375,7.969-1.913.637,1.7,11.156,3.613,14.557,2.338,4.463,6.481,10.413,11.475,12.325-1.275-1.7-2.656-3.719-4.038-5.844A147.561,147.561,0,0,1,477.4,929.1s6.056,8.819,8.819,13.282c1.381,2.125,2.656,4.144,3.825,5.844.956-4.675-3.188-10.307-5.313-13.813a69.684,69.684,0,0,0-4.356-6.375c4.569,3.931,9.138,7.544,11.369,9.031a.371.371,0,0,1,.213.106c3.4,4.569,7.544,9.669,12.538,12.857a236.8,236.8,0,0,1-62.264-9.669c-.213,0-.319,0-.319.106s.106.213.213.319a254.892,254.892,0,0,0,26.138,6.694c-8.5-.85-17.532-.213-25.819-.638-7.756-.425-15.619-1.062-23.376-1.488-2.975-.106-9.563.319-9.563.531-.212,2.019,25.607,6.906,34.745,7.225,9.669.425,22.207,1.063,31.238-3.506-4.675.531-9.563.85-14.238,1.063-10.732.425-33.363-2.019-33.363-2.019,0-.106,22.1,1.063,32.938.638,4.569-.106,9.138-.425,13.707-.85,1.594.319,3.188.531,4.888.744-5.419,1.063-10.625,4.994-14.769,8.181-2.444,1.913-11.688,10.413-9.881,11.9,2.444,2.019,13.282-4.038,17.425-7.438,3.188-2.656,9.138-7.013,9.244-11.9-1.594,1.488-3.4,3.081-5.313,4.675-4.038,3.294-13.813,9.563-13.813,9.563-.106-.106,8.394-7.331,12.219-10.519,1.913-1.594,3.719-3.081,5.313-4.356a230.252,230.252,0,0,0,35.17,2.444c-4.994,3.081-9.35,7.756-13.707,11.582-.106,0-.213.106-.319.106-8.607,3.4-17.425,6.481-26.032,9.775-2.763,1.063-10.2,4.569-9.881,5.313.744,1.806,16.044-.85,21.994-2.231-4.25,3.931-18.594,17.85-17,19.55C473.358,999.119,495.352,982.756,501.727,976.593Zm-9.563-48.239c-1.062-.637-2.125-1.275-3.081-1.913-2.231-4.038-6.163-12.538-6.163-12.538C483.027,913.9,489.083,923.679,492.165,928.354Zm24.332,23.8h2.338c-1.7,2.125-3.506,4.356-5.525,6.694-1.381.637-2.869,1.169-4.25,1.806C511.609,957.893,514.053,955.024,516.5,952.155Zm13.175-.531c-4.25,1.7-8.394,3.825-12.432,5.525a17.042,17.042,0,0,0,2.019-4.994C522.765,952.049,526.272,951.836,529.672,951.624Zm-21.357-1.275c0-1.062-.744-2.975-2.019-5.313a115.515,115.515,0,0,0,13.6,5.1C515.965,950.349,512.14,950.455,508.315,950.349Zm-9.669-9.031c1.275.744,2.55,1.381,3.931,2.019,1.913,2.55,3.719,4.888,5.525,7.119h-2.338C503.215,947.48,500.877,944.4,498.646,941.317Zm28.051,8.394c-1.169.106-2.338.106-3.613.212-3.931-1.594-7.863-3.4-11.794-5.313-2.656-1.275-5.206-2.656-7.544-3.931-.106-.213-.213-.319-.319-.531l-.106-.106a25.709,25.709,0,0,0-5.1-2.656.1.1,0,0,0,.106.106c-5.631-3.506-16.788-11.9-16.788-11.9.106-.106,20.4,12.538,31.026,17.744C517.24,945.674,522.022,947.8,526.7,949.711Zm26.032-4.994a15.638,15.638,0,0,0,2.338,1.063,12.353,12.353,0,0,0-1.913.425c-3.506-.85-6.906-1.913-10.307-2.975-8.606-2.975-25.713-11.05-25.713-11.157,0,0,17.638,7.013,26.563,9.988C546.672,942.911,549.754,943.867,552.729,944.717Zm2.975.744c.106,0,.213.106.319.106h-.213A.1.1,0,0,1,555.7,945.461Zm1.913-.212-1.594.319-1.275-.956c-1.913-1.806-3.931-3.719-5.844-5.844a233.15,233.15,0,0,1-14.875-18.276s10.944,11.9,16.363,17.425C552.941,940.573,555.385,943.017,557.616,945.249Zm19.232-13.919h.213c2.656,2.125,5.313,4.144,7.969,6.163-.637.213-1.169.425-1.806.638-3.4-2.444-6.588-4.994-9.882-7.544C574.829,930.9,576,931.223,576.848,931.33Zm17.319-1.913c3.188.213,6.269.425,9.457.531a.39.39,0,0,1,.319.106,28.854,28.854,0,0,1-2.656,1.169c-2.55-.106-5.206-.213-7.756-.425-9.138-.85-27.732-4.781-27.732-4.888C565.8,925.911,584.711,928.567,594.167,929.417Zm13.069-.956c-.638.319-1.169.531-1.806.85q-3.347-1.913-7.013-4.144c-6.269-4.038-18.913-14.132-18.807-14.238,0,0,13.494,8.925,20.082,13.069C602.349,925.592,604.9,927.079,607.236,928.461Zm-21.569,8.819a69.6,69.6,0,0,0-5.1-5.313,84.185,84.185,0,0,0,16.469,1.063C593.317,934.517,589.492,936,585.667,937.28Zm-15.194,7.863c.638-.212,1.381-.319,2.019-.531-2.444,3.506-5.1,6.906-7.863,10.2-6.481,7.756-22.1,22.207-22.1,22.207-.106-.106,14.238-14.982,20.719-22.738C565.691,951.3,568.135,948.224,570.473,945.142Zm-83.621,28.051c0-.106,14.45-5.738,21.569-8.819l-.106.106a23.984,23.984,0,0,0,5.844-2.338c.106,0,.106-.106.213-.106.106-.213.213-.319.319-.531,2.656-1.275,5.313-2.55,8.075-4.038,3.719-1.913,7.331-4.038,11.05-6.163,1.275-.106,2.444-.213,3.719-.319-4.356,2.763-8.713,5.313-13.282,7.65C512.884,964.374,486.852,973.193,486.852,973.193Zm-1.7,11.688c-.106-.106,7.331-7.331,10.838-10.731,1.381-.425,2.763-.85,4.038-1.381C495.565,976.912,485.152,984.881,485.152,984.881Z" transform="translate(-409.499 -896.841)" fill="#f0f0f0"/>
      <path id="Path_166" data-name="Path 166" d="M483.2,946.17c-4.25-1.806-8.5-3.613-12.538-5.631-9.138-4.356-27.094-14.663-27.094-14.663-.106.106,17.425,11.475,26.244,15.725a135.753,135.753,0,0,0,12.75,5.525c-10.307-.744-20.719-6.588-29.219-11.582-6.481-3.719-23.588-18.488-22.844-19.338,1.169-1.381,19.869,10.413,27.413,14.663C465.883,935.651,476.19,939.688,483.2,946.17Z" transform="translate(-408.187 -895.637)" fill="#f0f0f0"/>
    </g>
    <path id="Path_167" data-name="Path 167" d="M830.9,1053.436,419.915,714.171a.68.68,0,0,1,.85-1.063l419.8,328.321a7.744,7.744,0,0,1,1.275,10.838,7.649,7.649,0,0,1-10.838,1.275Z" transform="translate(8.202 3.877)" fill="#f0f0f0"/>
    <g id="Group_42" data-name="Group 42" transform="translate(610.194 681.283)">
      <g id="Group_41" data-name="Group 41">
        <path id="Path_168" data-name="Path 168" d="M701.628,718.676c1.381-6.056,3.719-18.488,3.719-18.488s-1.169,12.75-2.55,18.913c-.638,2.975-1.594,5.738-2.338,8.288,3.825-5.1,5.738-11.688,6.588-17.638.85-6.375-1.169-19.55-1.381-19.55-.85,0-3.294,12.113-4.144,17.744-.956,6.269-2.338,12.75-2.019,19.125C700.14,724.52,700.99,721.651,701.628,718.676Z" transform="translate(-584.497 -678.829)" fill="#f0f0f0"/>
        <path id="Path_169" data-name="Path 169" d="M705.531,735.307c3.613-10.519,8.925-32.088,8.925-32.088.106,0-3.506,22.738-7.013,32.726-1.806,5.1-3.931,10.094-5.95,14.45,8.075-8.075,12.325-20.507,14.982-30.707,2.125-8.394.956-33.788-1.488-33.788s-5.95,22.632-7.756,30.707c-2.338,10.625-6.906,22.1-7.331,33.257C701.706,745.4,703.725,740.408,705.531,735.307Z" transform="translate(-584.469 -679.098)" fill="#f0f0f0"/>
        <path id="Path_170" data-name="Path 170" d="M715.831,849.929c9.244-4.038,18.382-8.288,27.413-12.644,13.919-6.694,27.838-13.494,41.332-21.038,5.631-3.188,16.575-11.156,16.575-11.156-.319-.638-12.538,3.081-18.169,5.206-14.344,5.631-28.263,12.007-42.182,18.594-5.1,2.444-10.094,4.888-14.769,7.225,3.613-5.313,5.206-9.35,4.569-9.563-4.569-.956-15.407,12.007-20.932,17.957a218.564,218.564,0,0,0-22.1,12.963c1.381-9.882,3.081-19.657,4.888-29.538a5.692,5.692,0,0,1,1.169-.531c-.106.106-.213.319-.425.425a11.61,11.61,0,0,0,2.55-1.488c3.506-1.7,7.331-3.613,11.369-5.419,11.156-5.313,34.638-15.407,34.638-15.407.106.106-22.951,11.794-34.213,17.213-5.419,2.55-10.625,4.994-15.194,7.119,12.007-1.169,24.119-7.65,34.638-12.644,9.35-4.356,33.788-19.338,33.257-20.507-.744-1.913-27.307,8.288-35.488,12.113-7.331,3.4-14.663,7.225-21.782,11.369a258.135,258.135,0,0,0,18.382-19.019c6.269-7.119,22.844-31.026,21.888-31.77-1.806-1.381-21.782,19.125-28.369,26.669-7.65,8.713-15.725,17.744-21.676,27.838,1.275-6.588,2.019-9.881,3.4-16.469h0v-.106c1.169-5.631,1.7-8.394,2.763-14.025,4.038-4.675,8.075-9.35,12.113-14.132,2.55-2.975,4.994-5.844,7.225-8.606a3.181,3.181,0,0,0,.85-.425c0-.106.106-.106.106-.213a25.227,25.227,0,0,0,4.569-6.056c-.106,0-.106.106-.213.106,5.631-7.013,17.319-21.251,17.319-21.251.213.106-18.382,26.032-28.157,37.613-4.675,5.525-9.457,10.944-14.344,16.363,13.282-7.438,23.694-21.463,33.257-32.938,3.931-2.125,8.075-4.356,12.219-6.8,9.988-5.95,37.295-25.607,35.807-28.051S754.187,739,746.643,743.252c3.4-5.631,9.882-16.894,7.438-20.294-.531-.85-5.1,2.763-10.413,9.244-7.225,0-14.557,4.781-20.188,8.288-5.95,3.613-13.919,8.075-17.425,14.769,2.656-1.594,5.631-3.4,8.713-5.313,6.375-3.825,19.869-10.838,19.869-10.838.106.106-12.538,8.713-18.913,12.538-3.188,1.913-6.163,3.613-8.819,5.1,7.438.319,15.088-4.888,21.144-8.288a59.367,59.367,0,0,0,5.738-3.719c-2.869,3.719-5.95,7.756-9.244,12.007-.106.106-.106.213-.213.319-7.331,4.781-15.194,9.775-21.463,16.044,2.763-22.738,2.869-44.414-2.656-66.833,0-.213-.212-.319-.425-.319s-.319.106-.213.319a179.789,179.789,0,0,1,3.825,28.051c-2.444-9.244-7.013-17.85-12.007-25.607-6.163-9.35-28.9-29.432-29.113-29.219-1.169,1.063,15.513,23.907,21.251,33.045,5.844,9.244,10.838,21.782,19.019,29.432-1.7-4.144-3.825-9.031-6.269-13.919-5.631-11.05-19.019-31.77-19.019-31.77.106-.106,15.3,20.294,20.825,30.92a130.487,130.487,0,0,1,5.525,12.219c0,2.125,0,3.188-.106,5.313-4.144-5.206-10.625-8.606-16.15-11.688-4.781-2.656-21.038-7.969-21.994-6.056-1.063,2.231,12.432,11.794,17.532,14.344,5.95,2.975,13.388,7.544,20.4,6.694a319.235,319.235,0,0,1-4.675,34.851c-4.463-4.888-10.094-8.713-15.513-12.538,0-.106-.106-.213-.106-.319-5.1-8.606-25.607-33.151-27.732-31.557-1.381,1.169,4.781,14.344,7.65,19.763-7.438-3.825-31.663-14.025-32.938-11.794-1.7,3.081,24.544,20.4,32.938,25.394,3.613,2.125,7.225,4.144,10.519,5.95,5.631,9.988,11.156,21.888,19.869,29.751-2.444,10.413-4.888,20.826-7.013,31.238a155.311,155.311,0,0,0-8.819-21.144c-3.294-6.8-16.363-25.926-18.276-24.863-2.444,1.381,5.738,22.951,9.35,30.6a104.905,104.905,0,0,0,12.113,19.763c-12.219-8.182-25.5-15.088-38.464-21.569-12.857-6.375-50.151-20.932-50.9-19.551-1.381,2.444,33.363,22.526,45.051,28.263,14.982,7.438,31.238,15.938,47.814,19.657a262.519,262.519,0,0,0-3.825,40.8c-3.825-6.694-7.863-13.175-12.007-19.657-4.25-6.694-18.488-25.819-20.294-24.757-2.444,1.488,7.544,23.376,12.219,30.495,5.525,8.394,12.325,16.788,20.507,23.163.106,1.381.213,2.125.319,3.506-7.225-8.5-18.488-14.344-27.732-19.763-6.906-4.038-29.645-15.088-31.026-12.963-1.594,2.55,19.657,17.425,26.138,21.144,9.35,5.313,20.826,12.432,32.088,13.282-4.25-2.231-9.031-4.675-13.919-7.438-9.563-5.313-29.113-17.85-29.113-17.85.106-.213,20.4,10.732,30.069,16.15,4.781,2.656,9.457,5.206,13.6,7.544A138.218,138.218,0,0,0,693.3,944.6a.1.1,0,0,0,.106.106,6.946,6.946,0,0,0,5.738,3.506c2.019-.106,2.763-1.806,1.7-3.825-9.244-18.807-13.6-37.082-14.557-57.908,10.732-2.231,21.038-7.65,30.6-12.432,8.606-4.356,31.663-19.019,31.132-20.4-.85-2.019-26.669,8.182-34.532,12.007A199.627,199.627,0,0,0,693.3,877.024c5.631-6.163,10.838-12.538,16.15-18.913C711.474,855.454,713.705,852.586,715.831,849.929Zm44.2-108.165c.106.106-14.132,9.563-21.357,13.919.956-1.381,1.913-2.656,2.763-3.931C747.494,748.246,760.032,741.764,760.032,741.764Zm9.244,78.415c0,.106-33.045,16.575-49.407,24.544.85-1.062,1.594-2.125,2.338-3.188C737.506,834.31,769.276,820.179,769.276,820.179Zm-82.027,40.8a96.548,96.548,0,0,0,11.9-4.144c-4.675,6.163-9.35,12.325-13.069,19.125C686.4,870.011,686.611,867.036,687.249,860.98Zm17.744-11.156c-.956,1.063-1.913,2.231-2.869,3.294l-.106.106c-5.206,2.55-10.094,4.888-14.769,7.119.106-.85.106-1.169.212-2.019C693.411,855.561,699.255,852.692,704.993,849.823Zm-1.381-35.913c8.606-9.669,26.563-28.688,26.563-28.688.106.106-16.682,20.188-25.182,29.751-3.081,3.4-5.95,6.694-8.713,9.669a32.837,32.837,0,0,0-3.613,2.869c.106-.637.213-1.062.319-1.7C696.28,822.2,699.786,818.054,703.611,813.91Zm-8.288-15.619a86.96,86.96,0,0,0-4.463-12.007,53.71,53.71,0,0,0,6.588,1.913C696.705,792.128,696.28,794.147,695.324,798.291Zm23.057-33.363c-1.169,1.488-2.338,2.975-3.4,4.463-4.356,2.444-8.5,4.781-12.325,6.906,1.594,0,4.781-.85,9.138-2.656-4.038,5.525-8.181,10.944-11.688,16.788,1.169-6.588,1.806-9.882,2.656-16.469C707.649,771.2,712.855,768.115,718.381,764.927ZM694.9,743.783c-6.375-3.506-18.913-11.157-18.913-11.157,0-.106,13.494,5.95,19.869,9.35,2.656,1.381,5.206,2.869,7.438,4.144,0,.85-.106,1.275-.106,2.125C700.743,746.971,697.874,745.377,694.9,743.783Zm3.294,40.907c-.213,1.063-.319,1.488-.531,2.55q-4.144-2.391-8.606-5.1c-.637-1.381-1.381-2.869-2.125-4.25C690.967,780.228,694.792,782.565,698.193,784.69ZM649.741,757.7c0-.106,11.582,5.525,17.213,8.606.637,1.275,1.381,2.444,2.019,3.719C662.6,766.1,649.741,757.7,649.741,757.7ZM686.824,793.3c-6.056-11.9-18.7-35.807-18.7-35.807.106-.106,9.244,13.282,13.175,19.975l-.106-.106a16.872,16.872,0,0,0,2.763,5.738.371.371,0,0,1,.106.213c.213.106.531.213.744.319,1.381,2.656,2.869,5.313,4.356,8.181,1.913,3.719,3.719,7.225,5.313,10.625-.319,1.488-.531,2.338-.85,3.825C691.5,802.328,689.267,797.972,686.824,793.3ZM666.529,807.96c.213-.106,10.2,18.275,14.769,27.094,1.381,2.656,2.763,5.313,4.038,7.756-.213,1.275-.425,1.913-.638,3.294-1.7-3.081-3.506-6.375-5.313-9.881C674.923,827.4,666.529,807.96,666.529,807.96ZM664.4,840.048c-15.619-7.65-47.495-24.863-47.495-24.863.106-.213,32.938,15.194,48.664,22.951,6.163,2.975,12.325,6.056,18.488,9.138l.319.319c-.106.744-.213,1.169-.319,1.913C677.473,846.423,670.992,843.235,664.4,840.048Zm9.244,49.726c-6.269-8.5-17.425-28.157-17.425-28.157.106-.106,12.644,18.275,19.019,26.882q2.55,3.506,5.1,6.694c.106,1.275.106,1.913.213,3.294C678.217,895.724,675.88,892.749,673.648,889.774Zm56.208-27.094c.106.106-21.357,11.688-31.876,17.107-4.25,2.231-8.394,4.25-12.007,6.163v-1.912a5.892,5.892,0,0,1,.85-.638c3.188-1.7,6.8-3.506,10.413-5.419C707.649,872.667,729.856,862.68,729.856,862.68ZM686.824,881.7a6.077,6.077,0,0,0-.85.744V879.68c1.913-2.763,4.144-5.738,6.375-8.713,7.438-9.669,24.544-28.582,24.544-28.582.106.106-15.513,19.869-22.951,29.751C691.392,875.43,688.949,878.618,686.824,881.7Z" transform="translate(-591.262 -679.498)" fill="#f0f0f0"/>
      </g>
    </g>
    <g id="Group_44" data-name="Group 44" transform="translate(544.144 925.598)">
      <g id="Group_43" data-name="Group 43">
        <path id="Path_171" data-name="Path 171" d="M566.757,1007.794c-4.463,2.125-13.6,5.95-13.6,5.95s9.669-3.081,14.132-5.206c2.125-1.062,4.25-2.125,5.95-3.188-3.294,3.825-7.969,6.375-12.538,8.075-4.781,1.7-15.194,2.444-15.3,2.231-.213-.637,8.713-4.569,12.963-6.269,4.675-1.806,9.35-3.931,14.344-4.888A44,44,0,0,1,566.757,1007.794Z" transform="translate(-528.08 -903.492)" fill="#f0f0f0"/>
        <path id="Path_172" data-name="Path 172" d="M580.151,1008.194c-7.438,4.569-23.269,12.325-23.269,12.325,0,.106,16.894-6.481,24.119-10.944,3.613-2.231,7.119-4.781,10.094-7.013-4.888,7.544-13.707,12.963-21.144,16.788-6.056,3.081-25.819,6.482-26.351,4.569-.425-1.913,16.469-8.5,22.313-11.156,7.756-3.613,15.938-9.138,24.332-11.263C587.27,1003.519,583.764,1005.963,580.151,1008.194Z" transform="translate(-528.193 -903.68)" fill="#f0f0f0"/>
        <path id="Path_173" data-name="Path 173" d="M675.091,990.681c4.038-5.1,8.075-10.307,11.794-15.619a174.637,174.637,0,0,0-5.313,17.532c-1.7,6.694-5.206,28.263-3.4,28.582,1.169.213,8.606-20.082,10.413-27.413,2.125-8.182,4.463-17.107,4.356-25.713,16.257-2.763,31.132-2.55,47.176,1.381,1.7.531,2.975-.319,2.656-1.912a5.445,5.445,0,0,0-3.613-3.825h-.106a108.612,108.612,0,0,0-33.682-2.338c-2.444-2.869-5.206-5.95-8.075-9.244-5.738-6.481-17.638-20.294-17.532-20.4,0,0,13.069,12.963,18.7,19.444,2.869,3.294,5.631,6.481,8.075,9.456-2.55-8.5-10.094-16.15-15.725-22.419-3.931-4.463-19.125-18.276-20.719-16.575-1.381,1.488,10.944,17.107,15.194,21.782,5.738,6.269,12.219,13.919,19.975,18.063-1.062.106-1.7.213-2.763.319-6.269-5.313-13.919-9.031-21.357-11.9-6.269-2.444-24.863-6.375-25.607-4.25-.531,1.488,16.682,9.244,22.526,11.475,5.631,2.019,11.369,4.144,17.107,5.95a208.084,208.084,0,0,0-30.813,9.881c-5.631-12.219-14.982-23.269-23.269-33.576-6.481-7.969-27.732-31.345-29.432-29.857-.956.744,16.575,27.094,23.694,35.913,7.225,8.925,14.769,17.957,23.163,26.032A83.434,83.434,0,0,0,641.2,965.5c-6.588-1.594-24.544-4.144-25.182-2.019-.531,1.594,16.469,8.394,22.207,9.882a122.926,122.926,0,0,0,17.85,3.188c-7.65,3.506-15.3,7.119-22.951,10.732-7.544-5.313-17.638-7.544-26.351-10.2-1.912-2.338-4.038-4.675-6.375-7.119-5.313-5.631-23.057-22.951-25.182-21.038C573.62,950.3,585.626,967.2,589.876,972.3c-4.569-1.275-15.832-3.825-16.469-2.55-.956,1.806,21.569,13.494,29.007,15.938.106,0,.213,0,.213.106,3.825,3.506,7.756,7.225,12.325,9.775a253.93,253.93,0,0,1-26.032,9.456c-.531-5.631-5.313-10.519-8.606-14.663-2.869-3.506-12.538-12.219-14.025-11.05-1.381,1.063,5.525,12.644,8.394,15.938,3.294,3.719,7.013,8.181,11.794,10.413-1.594.425-2.444.637-4.037.956-3.188-.531-6.694-1.169-10.413-2.125-9.138-2.444-27.413-10.731-27.413-10.838,0,0,18.275,6.8,27.732,9.244,4.25,1.063,8.288,1.912,11.794,2.55-7.225-4.994-17.744-6.8-25.926-9.669-7.969-2.869-28.476-11.794-29.113-10.731-.106.213,19.232,14.344,27.52,17.532a70.722,70.722,0,0,0,21.782,4.888,130.8,130.8,0,0,1-22.313,1.806.228.228,0,0,0-.212.213c0,.106.212.213.319.213,18.169.425,34.851-3.294,51.958-9.35-3.719,5.844-6.269,12.75-8.713,19.232l-.213.213c-2.763,3.294-5.313,6.375-7.65,9.138.637-1.594,1.381-3.294,1.913-5.1,1.594-5.206,4.25-12.007,2.762-17.744-.744,2.338-1.488,4.994-2.444,7.65-1.806,5.631-6.375,16.788-6.481,16.682,0,0,3.188-11.582,4.994-17.107q1.434-4.144,2.55-7.65c-4.463,3.825-6.588,10.731-8.394,15.938-1.7,4.994-4.25,11.475-2.975,17-4.038,5.206-6.056,9.35-5.313,9.563,3.081,1.275,10.625-5.631,14.344-9.138-2.019,6.481-7.438,27.52-5.313,28.157,2.125.744,12.644-23.694,15.513-32.3,1.169-3.613,2.231-7.225,3.188-10.625,7.225-9.244,16.257-19.763,19.763-31.238-3.294,4.675-6.694,9.244-10.2,13.813-7.225,9.457-24.119,28.157-24.226,28.051,0,0,8.925-11.369,13.388-16.894v.106a19.325,19.325,0,0,0,3.825-4.463.1.1,0,0,1,.106-.106c0-.213.106-.425.106-.744q2.55-3.347,5.419-7.013c2.975-3.931,5.844-7.756,8.819-11.688,4.144-1.806,6.269-2.656,10.413-4.569h0c4.888-2.125,7.225-3.294,12.113-5.419-6.8,6.375-12.432,14.025-17.744,21.463-4.569,6.375-17.107,25.288-15.725,26.457.744.637,16.363-16.257,20.826-22.313a197.326,197.326,0,0,0,11.475-17.425c-2.019,6.163-3.719,12.432-5.1,18.7-1.488,6.906-4.888,29.113-3.294,29.432.956.213,8.288-21.251,10.094-29.113,2.019-8.925,4.994-19.444,3.825-28.795-.85,3.931-1.806,8.288-2.869,12.963-2.231,9.563-7.332,29.326-7.438,29.22,0,0,3.825-19.869,5.95-29.326.744-3.4,1.594-6.694,2.231-9.669a12.957,12.957,0,0,0,.744-2.125.552.552,0,0,0-.213.425,3.1,3.1,0,0,0,.213-.956c7.225-3.081,14.557-6.056,21.888-8.819-2.55,6.269-4.356,12.75-6.269,19.232-3.613,5.313-11.794,15.832-10.307,19.232.213.425,3.081-1.488,6.588-5.206-.956,4.037-2.019,8.288-3.081,12.538-2.656,11.794-5.313,23.694-7.119,35.7-.744,4.675-1.488,14.769-.956,14.875,0,0,4.356-9.775,5.844-14.663,3.506-11.688,6.481-23.588,9.244-35.488,1.806-7.65,3.506-15.513,5.1-23.269C671.372,995.144,673.179,992.912,675.091,990.681Zm-76.714,43.032c.85-.956,1.7-1.806,2.55-2.869-2.125,6.269-7.013,18.913-7.119,18.807C593.808,1049.758,596.677,1038.92,598.377,1033.713Zm65.983-30.07c.637-.744,1.381-1.594,2.019-2.338-3.294,14.025-10.413,42.289-10.519,42.289C655.859,1043.489,661.385,1016.607,664.36,1003.644Zm20.4-33.682c-4.675,4.038-8.5,8.713-12.538,13.282a86.359,86.359,0,0,0,1.169-9.881C677.96,971.874,680.191,971.131,684.76,969.962ZM671.479,974c.638-.213.956-.319,1.488-.531-.956,3.931-1.913,8.182-2.975,12.538l-.106.106c-.744.956-1.381,1.806-2.125,2.763C669.035,983.987,670.2,978.993,671.479,974Zm-24.226,9.775c.531-.213.744-.319,1.275-.531a13.576,13.576,0,0,0-1.594,3.294c-1.912,2.656-3.931,5.419-5.95,8.394-5.95,8.182-18.594,24.544-18.7,24.438,0,0,11.688-17.107,17.638-25.394C642.472,990.362,644.915,986.856,647.253,983.775Zm-28.369,9.881a27.109,27.109,0,0,0-2.55-4.781,86.8,86.8,0,0,0,10.094,1.381C623.452,991.637,621.965,992.381,618.884,993.656Zm-9.988,6.481c4.888-1.806,7.332-2.869,12.219-4.888-3.825,3.719-7.331,7.863-10.944,11.9.638-3.613.744-6.269.425-7.438-.956,3.294-2.019,6.906-3.187,10.732-.956,1.063-1.913,2.231-2.869,3.4C606.133,1008.85,607.621,1004.281,608.9,1000.138Zm-19.763,4.675c-.638.213-.956.213-1.594.425-1.381-1.488-2.869-3.187-4.463-4.994-3.719-4.356-10.625-13.707-10.519-13.707,0,0,7.969,8.288,11.794,12.644C586.158,1001.2,587.751,1003.112,589.133,1004.813Zm20.082-17.532c1.275.319,2.444.637,3.613.85q2.869,3.028,5.419,5.738c-.744.319-1.169.531-1.912.85C614.208,992.487,611.765,989.937,609.214,987.281Zm-9.031-12.538c-1.063-.319-2.231-.637-3.294-.956-3.294-3.825-9.669-11.794-9.563-11.794C587.327,961.993,596.039,970.387,600.183,974.743Zm32.088,12.75c-1.169.531-1.7.85-2.869,1.381-2.869-.637-5.95-1.488-9.138-2.231q-3.666-.956-7.013-1.913c-.106-.213-.213-.319-.319-.531h-.106a14.972,14.972,0,0,0-4.888-1.169l.106.106c-5.844-1.913-17.744-6.694-17.638-6.8,0,0,20.613,5.631,30.813,8.288C625.152,985.581,628.871,986.537,632.271,987.493Zm20.719-15.938c2.975.744,5.844,1.594,8.5,2.338-.956.425-1.488.637-2.444,1.063-2.125-.531-4.356-1.169-6.694-1.806-7.65-2.019-23.482-6.588-23.376-6.8C628.978,966.455,645.34,969.537,652.991,971.556Zm10.944,1.275a15.6,15.6,0,0,0-1.488.637c-.106-.106-.213-.106-.319-.212-3.4-4.25-6.8-8.394-10.2-12.644-8.713-10.838-26.138-33.576-26.032-33.682,0,0,18.594,21.569,27.2,32.407C656.922,963.8,660.428,968.368,663.935,972.831Zm37.188-11.05a21.274,21.274,0,0,0-2.55.425c-1.912-.956-3.931-1.913-6.056-2.763-7.756-3.4-24.013-9.988-24.013-10.094,0,0,17,5.206,24.651,8.606C695.917,959.124,698.573,960.505,701.123,961.78ZM688.16,978.143c.85-3.187,1.594-6.163,2.444-8.925.106-.213.213-.531.319-.744.531-.106.85-.213,1.488-.319-.85,3.188-1.7,6.694-2.656,10.307-2.338,9.031-7.65,27.52-7.756,27.52S685.823,987.068,688.16,978.143Zm-5.1-1.487c-6.269,7.438-18.913,22.844-19.019,22.738,0,0,11.688-16.363,17.85-23.8,1.912-2.338,3.825-4.463,5.631-6.481l2.125-.531c-.106.213-.319.531-.425.744C687.31,971.662,685.185,974.106,683.06,976.656Z" transform="translate(-529.099 -909.436)" fill="#f0f0f0"/>
      </g>
    </g>
    <path id="Path_174" data-name="Path 174" d="M554.875,787.225a10.511,10.511,0,0,1-6.906,17.107,2.318,2.318,0,0,0,.531-.425,8.8,8.8,0,0,0-11.9-12.963l-.213.213a10.687,10.687,0,0,1,3.081-5.1,10.131,10.131,0,0,1,5.95-2.656,13.761,13.761,0,1,0,9.988,4.463A2.814,2.814,0,0,0,554.875,787.225Z" transform="translate(15.195 8.281)" fill="#f0f0f0"/>
    <path id="Path_175" data-name="Path 175" d="M573.175,805.625a10.511,10.511,0,0,1-6.906,17.107,2.317,2.317,0,0,0,.531-.425,8.8,8.8,0,0,0-11.9-12.963l-.213.213a10.687,10.687,0,0,1,3.081-5.1,10.131,10.131,0,0,1,5.95-2.656,13.761,13.761,0,1,0,9.988,4.463A2.814,2.814,0,0,0,573.175,805.625Z" transform="translate(16.339 9.432)" fill="#f0f0f0"/>
    <path id="Path_176" data-name="Path 176" d="M578.576,779.725a10.511,10.511,0,0,1-6.906,17.107,2.316,2.316,0,0,0,.531-.425,8.8,8.8,0,0,0-11.9-12.963l-.213.213a10.687,10.687,0,0,1,3.081-5.1,10.131,10.131,0,0,1,5.95-2.656,13.761,13.761,0,1,0,9.988,4.463C578.894,780.15,578.788,779.938,578.576,779.725Z" transform="translate(16.677 7.812)" fill="#f0f0f0"/>
    <path id="Path_177" data-name="Path 177" d="M733.975,926.825a10.511,10.511,0,0,1-6.906,17.107,2.313,2.313,0,0,0,.531-.425,8.8,8.8,0,0,0-11.9-12.963l-.213.213a10.687,10.687,0,0,1,3.081-5.1,10.131,10.131,0,0,1,5.95-2.656,13.761,13.761,0,1,0,9.988,4.463A1.088,1.088,0,0,0,733.975,926.825Z" transform="translate(26.394 17.01)" fill="#f0f0f0"/>
    <path id="Path_178" data-name="Path 178" d="M752.276,945.225a10.511,10.511,0,0,1-6.906,17.107,2.316,2.316,0,0,0,.531-.425A8.8,8.8,0,0,0,734,948.944l-.213.213a10.687,10.687,0,0,1,3.081-5.1,10.131,10.131,0,0,1,5.95-2.656,13.761,13.761,0,1,0,9.988,4.463A1.088,1.088,0,0,0,752.276,945.225Z" transform="translate(27.538 18.161)" fill="#f0f0f0"/>
    <path id="Path_179" data-name="Path 179" d="M757.576,919.325a10.511,10.511,0,0,1-6.906,17.107,2.314,2.314,0,0,0,.531-.425,8.8,8.8,0,0,0-11.9-12.963l-.213.213a10.688,10.688,0,0,1,3.081-5.1,10.131,10.131,0,0,1,5.95-2.656,13.761,13.761,0,1,0,9.988,4.463A2.818,2.818,0,0,0,757.576,919.325Z" transform="translate(27.869 16.541)" fill="#f0f0f0"/>
    <path id="Path_180" data-name="Path 180" d="M606.675,827.725a10.511,10.511,0,0,1-6.906,17.107,2.314,2.314,0,0,0,.531-.425,8.8,8.8,0,0,0-11.9-12.963l-.213.213a10.687,10.687,0,0,1,3.081-5.1,10.131,10.131,0,0,1,5.95-2.656,13.761,13.761,0,1,0,9.988,4.463A2.814,2.814,0,0,0,606.675,827.725Z" transform="translate(18.434 10.814)" fill="#f0f0f0"/>
    <path id="Path_181" data-name="Path 181" d="M717.276,911.825a10.511,10.511,0,0,1-6.906,17.107,2.316,2.316,0,0,0,.531-.425A8.8,8.8,0,0,0,699,915.544l-.212.213a10.687,10.687,0,0,1,3.081-5.1,10.132,10.132,0,0,1,5.95-2.656,13.761,13.761,0,1,0,9.988,4.463A2.818,2.818,0,0,0,717.276,911.825Z" transform="translate(25.35 16.072)" fill="#f0f0f0"/>
    <g id="Group_45" data-name="Group 45" transform="translate(589.051 865.469)">
      <path id="Path_182" data-name="Path 182" d="M582.24,876.922a10.537,10.537,0,0,1,11.369,8.925,10.872,10.872,0,0,1-1.062,6.375,1.808,1.808,0,0,0-.106-.744,8.806,8.806,0,1,0-17.425,2.55.39.39,0,0,0,.106.319,10.6,10.6,0,0,1-2.444-5.419,10.342,10.342,0,0,1,1.169-6.481,13.831,13.831,0,0,0-2.338,9.882A13.749,13.749,0,1,0,583.09,876.71,3.286,3.286,0,0,1,582.24,876.922Z" transform="translate(-571.363 -851.364)" fill="#f0f0f0"/>
      <path id="Path_183" data-name="Path 183" d="M607.74,872.122a10.537,10.537,0,0,1,11.369,8.925,10.872,10.872,0,0,1-1.062,6.375,1.809,1.809,0,0,0-.106-.744,8.806,8.806,0,0,0-17.425,2.55.391.391,0,0,0,.106.319,10.6,10.6,0,0,1-2.444-5.419,10.342,10.342,0,0,1,1.169-6.481,13.831,13.831,0,0,0-2.338,9.881A13.749,13.749,0,1,0,608.59,871.91,3.284,3.284,0,0,1,607.74,872.122Z" transform="translate(-569.769 -851.664)" fill="#f0f0f0"/>
      <path id="Path_184" data-name="Path 184" d="M589.34,853.222a10.537,10.537,0,0,1,11.369,8.925,10.872,10.872,0,0,1-1.062,6.375,1.809,1.809,0,0,0-.106-.744,8.806,8.806,0,0,0-17.426,2.55.39.39,0,0,0,.106.319,10.6,10.6,0,0,1-2.444-5.419,10.343,10.343,0,0,1,1.169-6.481,13.832,13.832,0,0,0-2.338,9.881A13.749,13.749,0,1,0,590.19,853.01,2.5,2.5,0,0,0,589.34,853.222Z" transform="translate(-570.919 -852.846)" fill="#f0f0f0"/>
    </g>
    <g id="Group_46" data-name="Group 46" transform="translate(549.34 860.531)">
      <path id="Path_185" data-name="Path 185" d="M543.032,868.325a8.678,8.678,0,0,1,9.35,7.438,8.5,8.5,0,0,1-.85,5.206,1.347,1.347,0,0,0-.106-.638,7.243,7.243,0,0,0-14.344,2.019v.213a8.67,8.67,0,0,1-1.063-9.775,11.45,11.45,0,1,0,7.756-4.781A1.412,1.412,0,0,1,543.032,868.325Z" transform="translate(-533.989 -846.966)" fill="#f0f0f0"/>
      <path id="Path_186" data-name="Path 186" d="M564.132,864.325a8.678,8.678,0,0,1,9.35,7.438,8.5,8.5,0,0,1-.85,5.206,1.348,1.348,0,0,0-.106-.637,7.243,7.243,0,0,0-14.344,2.019v.213a8.67,8.67,0,0,1-1.062-9.775,11.45,11.45,0,1,0,7.756-4.781A1.412,1.412,0,0,1,564.132,864.325Z" transform="translate(-532.67 -847.217)" fill="#f0f0f0"/>
      <path id="Path_187" data-name="Path 187" d="M548.932,848.625a8.678,8.678,0,0,1,9.35,7.438,8.5,8.5,0,0,1-.85,5.206,1.348,1.348,0,0,0-.106-.637,7.243,7.243,0,1,0-14.344,2.019v.213a8.67,8.67,0,0,1-1.063-9.775,11.45,11.45,0,1,0,7.756-4.781A1.414,1.414,0,0,1,548.932,848.625Z" transform="translate(-533.62 -848.198)" fill="#f0f0f0"/>
    </g>
    <g id="Group_47" data-name="Group 47" transform="translate(400.9 687.762)">
      <path id="Path_188" data-name="Path 188" d="M422.7,711.815c-3.081-5.525-5.525-10.094-5.313-10.094.212-.106,2.869,4.25,5.95,9.775.85,1.594,1.7,3.081,2.444,4.463.106-1.275-1.7-5.525-4.463-10.413-3.081-5.525-6.269-9.669-7.013-9.244s1.169,5.206,4.25,10.732c2.763,4.888,5.525,8.606,6.588,9.138C424.51,714.9,423.66,713.408,422.7,711.815Z" transform="translate(-393.043 -684.929)" fill="#f0f0f0"/>
      <path id="Path_189" data-name="Path 189" d="M430.866,717.085c-5.419-9.563-9.563-17.425-9.244-17.532s4.888,7.438,10.307,17c1.594,2.763,2.975,5.313,4.25,7.65.212-2.125-2.975-9.563-7.65-18.063-5.419-9.563-10.838-16.682-12.113-15.938s2.019,9.031,7.438,18.594c4.781,8.394,9.563,14.982,11.475,15.832C433.842,722.4,432.354,719.848,430.866,717.085Z" transform="translate(-392.918 -685.312)" fill="#f0f0f0"/>
      <path id="Path_190" data-name="Path 190" d="M491.1,748.82c1.275-4.569,2.656-9.881,3.931-15.513,4.25-18.382,6.588-33.47,5.1-33.895-1.488-.319-6.056,14.238-10.413,32.62-.638,2.869-1.275,5.738-1.913,8.394-1.381-2.975-2.55-4.781-3.188-4.569-1.169.319-.531,6.163,1.381,14.025a112.875,112.875,0,0,0-1.806,13.388l-13.282-10.307c0-.213.106-.425.106-.638a.39.39,0,0,0,.106.319,4.925,4.925,0,0,0,.213-1.488c.425-2.019.956-4.144,1.488-6.375,2.444-10.625,4.781-19.232,5.1-19.232.319.106-1.488,8.819-3.931,19.444-.744,3.081-1.381,5.95-2.019,8.5,1.594-1.488,4.356-9.031,6.588-18.488,2.444-10.625,3.294-19.551,1.913-19.976-1.488-.319-4.675,8.075-7.119,18.7a102.009,102.009,0,0,0-2.231,12.538,119.177,119.177,0,0,0-2.975-13.069c-2.975-10.519-6.588-18.7-8.075-18.275s-.106,9.244,2.869,19.763c2.125,7.544,4.675,13.919,6.375,16.788l-7.331-5.738h0l-6.269-4.888c-.85-2.763-1.7-5.95-2.656-9.138-.531-1.913-1.063-3.825-1.594-5.631,0-.106.106-.319.106-.425v-.106a12.487,12.487,0,0,0-1.275-3.825v.106c-2.338-8.394-3.825-14.344-3.506-14.45s3.719,10.625,7.65,24.013c1.063,3.825,2.125,7.438,2.975,10.731.744-2.55-.85-12.325-4.144-23.8.425-2.338.956-4.888,1.275-7.438,2.125-13.707,2.444-25.076.744-25.288-1.594-.213-4.25,8.288-6.269,19.763-2.55-6.8-4.888-11.157-5.95-10.838-.85.213-.85,3.4-.106,8.182-1.381,1.063-3.081,5.95-3.931,11.794-.956,6.056-.85,11.263.213,12.644.213-1.7.531-3.506.85-5.525,1.063-6.906,2.231-12.432,2.55-12.432s-.319,5.631-1.381,12.538c-.319,2.019-.638,3.825-.956,5.525,1.381-.956,3.081-5.844,4.038-11.9.213-1.275.319-2.55.425-3.825.638,2.55,1.275,5.206,2.125,7.969,0,.106,0,.106.106.213-.638,6.588-.744,11.9-.213,14.238l-30.282-23.588a.147.147,0,0,0-.213,0c-.106.106-.106.213,0,.213l12.432,10.307a102.314,102.314,0,0,0-14.663-5.631c-10.519-3.188-19.338-4.675-19.763-3.294s7.65,5.206,18.169,8.394c9.244,2.869,17.213,4.25,19.232,3.613-2.55-.744-5.419-1.594-8.394-2.55-10.519-3.188-18.913-6.056-18.807-6.375s8.606,2.019,19.125,5.313c2.656.85,5.1,1.594,7.331,2.338l2.338,1.913c-2.231-.106-6.481.85-11.263,2.763-6.481,2.55-11.369,5.738-10.838,7.119s6.269.425,12.75-2.125c5.738-2.231,10.094-4.994,10.732-6.588l15.3,12.644a72.083,72.083,0,0,0-12.219,3.188h-.212c-13.813-.85-25.182-.106-25.288,1.594-.106,1.169,4.675,2.444,11.9,3.506-10.732,4.463-18.488,8.925-17.957,10.413.638,1.7,11.688-1.169,24.544-6.163q3.666-1.434,7.013-2.869c10.519.638,19.444.319,22.951-.637l13.707,11.369A120.63,120.63,0,0,0,459.965,757c-10.944-.638-19.869,0-19.975,1.488s8.713,3.294,19.657,3.931a114.482,114.482,0,0,0,14.875,0c-5.844,2.019-15.3,6.056-25.819,11.05-17,8.182-30.282,15.832-29.645,17.213s14.982-4.144,31.982-12.325c13.494-6.481,24.544-12.644,28.263-15.513l17.957,14.875a118.4,118.4,0,0,0-13.494-1.594c-10.944-.638-19.869,0-19.975,1.488s8.713,3.294,19.657,3.931c7.863.531,14.663.319,17.957-.425L503,782.4c-2.231-.425-9.988,1.275-18.913,4.463-10.307,3.719-18.275,7.756-17.744,9.244.531,1.381,9.244-.425,19.551-4.144,9.138-3.188,16.363-6.8,17.638-8.606-2.444.956-5.313,1.913-8.288,2.975-10.307,3.719-18.807,6.375-18.913,6.056s8.181-3.506,18.488-7.225c2.975-1.062,5.738-2.019,8.181-2.869l18.275,15.194h0a2.125,2.125,0,1,0,2.55-3.4l-26.457-20.613c1.594-2.55,3.931-9.456,5.844-17.638,2.444-10.625,3.294-19.551,1.913-19.976-1.488-.319-4.675,8.075-7.119,18.7a102,102,0,0,0-2.231,12.538,119.192,119.192,0,0,0-2.975-13.069C492.266,752.327,491.628,750.521,491.1,748.82Zm-38.251-49.939c.319,0-.425,5.738-1.594,14.025-.319-.85-.531-1.7-.85-2.55C451.677,703.451,452.634,698.776,452.846,698.882Zm43.139,18.488c.319.106-2.338,12.325-6.056,28.263-.213-.638-.531-1.275-.744-1.913C492.8,728.633,495.666,717.264,495.985,717.37Zm-10.2,47.176a55.236,55.236,0,0,0,2.444-6.375,122.139,122.139,0,0,0,4.25,11.688Zm1.169-11.05.638,2.231v.106c-.744,2.975-1.381,5.844-2.019,8.5l-.956-.744C485.359,760.508,486.1,757.108,486.953,753.5Zm-19.232-9.031c-2.975-10.519-5.206-19.125-4.888-19.232s2.975,8.394,6.056,18.913c.638,2.231,1.275,4.356,1.806,6.375a14.313,14.313,0,0,0,.106,2.338l-.744-.637C469.315,749.883,468.465,747.227,467.722,744.464Zm-11.369-.425c-2.231-.425-4.888-.956-7.969-1.275a28.02,28.02,0,0,0,3.506-2.338Zm-8.181-19.444.956,2.869c-.425,2.656-.85,5.1-1.275,7.438a14.7,14.7,0,0,0,2.125-4.781,81.566,81.566,0,0,0,4.144,9.775l-7.438-5.738C447.108,731.183,447.64,727.889,448.171,724.595Zm-18.913,3.294c-6.481,2.55-11.9,4.356-12.007,4.038s5.1-2.55,11.582-5.1c1.7-.638,3.188-1.275,4.675-1.806l.956.744C432.871,726.507,431.064,727.145,429.258,727.889ZM450.4,739.045l1.063.956c-1.806.744-3.825,1.594-5.95,2.338-.956-.106-1.913-.213-2.975-.319C445.408,740.958,448.065,740,450.4,739.045Zm-31.77,13.175c-.106-.213,4.144-2.125,10.732-4.781a20.709,20.709,0,0,0,2.656.213C424.158,750.627,418.739,752.433,418.633,752.221Zm31.982-5.844c-13.813-.85-25.076-1.913-25.076-2.231s6.163-.106,14.875.319h-.106a12.091,12.091,0,0,0,3.931.425h.106c.106-.106.319-.106.425-.213,1.913.106,3.825.213,5.844.319,2.656.213,5.206.319,7.544.531l1.7,1.381C456.99,746.8,453.909,746.589,450.615,746.377Zm-.106,12.75c0-.319,8.925,0,19.869.638,1.913.106,3.825.213,5.525.319l1.381,1.169c-2.231-.106-4.569-.213-7.013-.425C459.328,760.3,450.509,759.446,450.509,759.127Zm16.044,9.35c-17,8.182-30.92,14.557-31.026,14.238s13.494-7.119,30.495-15.3c4.144-2.019,8.075-3.825,11.688-5.525a.39.39,0,0,0,.319-.106l.85.744C475.053,764.44,470.909,766.458,466.553,768.477Zm27.519,11.582c-10.944-.638-19.763-1.488-19.763-1.806s8.925,0,19.869.638q2.55.159,4.781.319l1.488,1.169C498.429,780.378,496.3,780.165,494.072,780.059Zm8.713-33.576c.319.106-1.487,8.819-3.931,19.444-.638,2.656-1.169,5.1-1.806,7.331l-.85-.637v-.531c.425-2.019.956-4.144,1.487-6.375C500.129,754.983,502.466,746.377,502.785,746.483Zm-7.331,24.969v.638l-1.275-.956c-.531-1.806-1.063-3.719-1.7-5.738-2.975-10.519-5.206-19.125-4.888-19.232s2.975,8.394,6.056,18.913C494.285,767.309,494.922,769.434,495.453,771.452Z" transform="translate(-394.285 -685.596)" fill="#f0f0f0"/>
    </g>
    <path id="Path_191" data-name="Path 191" d="M514.049,773.832c-.531-9.35-.744-17-.531-17,.319,0,.956,7.544,1.488,16.894.106,2.656.319,5.206.425,7.544.956-1.594,1.381-8.5.956-16.682-.531-9.35-2.019-16.894-3.294-16.788s-1.913,7.756-1.381,17.107c.425,8.288,1.7,15.088,2.869,16.469C514.367,779.038,514.261,776.488,514.049,773.832Z" transform="translate(13.946 6.055)" fill="#f0f0f0"/>
    <path id="Path_192" data-name="Path 192" d="M521.456,786.057c-.956-16.15-1.275-29.326-.85-29.326s1.594,13.069,2.55,29.326c.319,4.675.531,9.031.638,12.963,1.7-2.763,2.444-14.663,1.594-29.007-.956-16.15-3.506-29.219-5.631-29.113-2.231.106-3.188,13.388-2.338,29.538.85,14.238,2.869,26.032,4.888,28.582C522.093,795.2,521.774,790.733,521.456,786.057Z" transform="translate(14.295 5.624)" fill="#f0f0f0"/>
    <path id="Path_193" data-name="Path 193" d="M769.156,986.057c-.956-16.15-1.275-29.326-.85-29.326s1.594,13.069,2.55,29.326c.319,4.675.531,9.031.638,12.963,1.7-2.763,2.444-14.663,1.594-29.007-.956-16.15-3.506-29.219-5.631-29.113-2.231.106-3.188,13.388-2.338,29.538.85,14.238,2.869,26.032,4.888,28.582C769.687,995.2,769.368,990.732,769.156,986.057Z" transform="translate(29.783 18.129)" fill="#f0f0f0"/>
    <path id="Path_194" data-name="Path 194" d="M749.92,980.557c-16.044,2.55-28.9,5.1-28.9,5.525.106.425,13.069-1.275,29.113-3.825,4.569-.744,8.925-1.488,12.857-2.125-2.338,2.231-13.813,5.525-27.944,7.756-16.044,2.55-29.326,2.869-29.645.744-.319-2.231,12.325-6.056,28.37-8.606,14.132-2.231,26.138-2.763,29.007-1.381C758.845,979.176,754.489,979.813,749.92,980.557Z" transform="translate(26.068 20.442)" fill="#f0f0f0"/>
  </g>
</svg>
