<svg xmlns="http://www.w3.org/2000/svg" width="223.565" height="217.542" viewBox="0 0 223.565 217.542">
  <g id="Group_84" data-name="Group 84" transform="translate(-692 -2054.364)">
    <g id="Group_64" data-name="Group 64" transform="translate(692 2054.364)" opacity="0.15">
      <g id="Group_25" data-name="Group 25" transform="translate(0 0)">
        <path id="Path_89" data-name="Path 89" d="M742.2,290.105c-19.9-84.8-79-153.1-160.3-184.7-.2-.1-.4,0-.4.1s.1.3.2.3c79.7,32.7,137.1,101.1,155.2,185.3.4,2.2,1.9,3.8,3.4,3.5,1.5-.2,2.3-2.3,1.8-4.5C742.2,290.205,742.2,290.105,742.2,290.105Z" transform="translate(-556.1 -77.099)" fill="#fff"/>
        <path id="Path_90" data-name="Path 90" d="M605.5,310.378c-9-7.8-30.3-21.5-30.3-21.5-.1.1,19.9,14.5,29,22.4,4,3.4,7.9,7,11.7,10.6-10.6-5.1-20-14.3-29.4-21.1-7-5.1-14.3-9.9-21.3-15-2.6-1.9-8.1-6.9-7.9-7.2,1.2-1.9,27,11.9,35.1,17.9,8.6,6.4,20,14.5,24.7,24.8C613.3,317.378,609.4,313.778,605.5,310.378Z" transform="translate(-556.1 -277.372)" fill="#fff"/>
        <path id="Path_91" data-name="Path 91" d="M593.4,286.738c-6.6-1.1-20-2.9-20-2.9s13.4,1,19.9,2c3.2.5,6.2,1.1,8.9,1.7-5.9-3.2-13.6-4.1-19.9-4.8-5.7-.7-19.6.5-19.6.5,0,.7,13.9,2.8,20.2,3.6,6.2.7,13.1,2.2,19.3,1.5C599.6,287.838,596.6,287.238,593.4,286.738Z" transform="translate(-556.1 -248.131)" fill="#fff"/>
        <path id="Path_92" data-name="Path 92" d="M621,303c-1.2-5.7-5.3-18-5.3-18-.2.1,2.2,12.2,3.3,17.6.6,2.8,1.1,5.5,1.6,7.8-4.3-4.7-6.1-12-7.6-17.9-.8-3.3-2.9-17.2-.3-17.2,3.6,0,8.7,12.7,9.9,18.6.9,4.6,3.1,12.4-.3,16.8A65.212,65.212,0,0,0,621,303Z" transform="translate(-556.1 -263.094)" fill="#fff"/>
        <path id="Path_93" data-name="Path 93" d="M642.9,267.006c-.1.1,8.5,15.1,12.5,22.7v-.2a28.477,28.477,0,0,1,3.4,6.1c0,.1.1.1.1.2a1.953,1.953,0,0,1-.1.7c1.4,2.9,2.8,6,4.2,9.1,2.5,5.7,4.8,11.5,7,17.3-5-6.1-8.2-14-11.9-20.9-.6,3.3-1.4,5.5-2.2,6.3.1-3.3,0-6.8-.1-10.6-.8-1.5-1.6-3-2.5-4.5.3,4.8.5,9.6.6,14.5-3.2-6.7-3.8-15.1-5-22.4-.1-.1-.1-.2-.2-.3-5.1-8.9-10.6-17.7-15.8-26.6-1.6-2.8-5.6-11-4.9-11.5,1.9-1.1,13.4,12,17.6,17.3-1-6.4-3.7-28.5-1.1-28.8,4.6-.5,12.3,29.1,13.6,38.8a108.532,108.532,0,0,1,.9,11c5.4,10.5,13.9,25.3,12.7,37.7-2-5.9-4.2-11.8-6.7-17.4C659.4,292.606,642.9,267.006,642.9,267.006Zm6.6-11.5c-.1,0,1.2,11.4,1.9,16.9.9,1.3,1.7,2.7,2.6,4C653,269.706,649.5,255.506,649.5,255.506Z" transform="translate(-556.1 -235.4)" fill="#fff"/>
        <path id="Path_94" data-name="Path 94" d="M644.6,246.074c5.9,1.3,11.7,2.9,17.6,4.6-11.6,1.6-25.7-3.1-37.2-4.7-3,1.1-6.3,2.2-9.6,3.4-8.3,2.9-31.6,11.9-33.1,9.5-1.3-2.1,16.4-12.9,21.7-15.4-5.7-.6-18.9-2.2-19.1-3.5-.4-2.7,30.1-3.8,37.6-3h.3c6.9-1.8,15-3.5,22.1-2-4.6.9-9.3,2-13.8,3.3,1.6.3,3.2.6,4.8,1,3.6-.9,7-1.7,10.2-2.5-.6,1-2.6,2.2-5.7,3.5,7.4,2.1,15.5,4.1,21.9,8.7q-8.7-2.7-17.7-4.8-4.8-1.05-9.3-1.8a1.421,1.421,0,0,1-.6.2h-.2a23.579,23.579,0,0,1-6.3-1.3h.1c-7.4-.9-22.9-1.4-22.9-1.4C605.3,239.974,631.8,243.174,644.6,246.074Zm-28.3-1.2c-1.4-.2-2.7-.3-4-.5-4.7,1.9-14,6.6-14,6.6C598.2,251.074,610.3,246.874,616.3,244.874Z" transform="translate(-556.1 -170.768)" fill="#fff"/>
        <path id="Path_95" data-name="Path 95" d="M608.1,278.861c-11-2.6-33.8-6.1-33.8-6.1,0-.1,23.1,2.2,33.7,4.6,5,1.1,10,2.5,14.9,4-9.5-6.5-22.6-8.7-33.5-10.3-8.2-1.2-33.3-.3-33.3.8.1,2.1,24.5,4.8,34,6.3,10.4,1.6,22.1,5.4,32.7,4.6C618,281.261,613,280.061,608.1,278.861Z" transform="translate(-556.1 -230.455)" fill="#fff"/>
        <path id="Path_96" data-name="Path 96" d="M673.5,213.1c-8.6,1.1-26.4,3.7-26.4,3.7,0-.2,17.5-4.4,25.6-5.5,4.2-.6,8.3-.9,11.9-1.1-8.4-3.3-19.3-1.4-27.5.3-5.4,1.1-24.2,8.1-23.5,10,.9,2.3,20.3-.9,27-2.1,7.6-1.3,18-1.9,24.7-6.5C681.8,212.2,677.7,212.6,673.5,213.1Z" transform="translate(-556.1 -106.792)" fill="#fff"/>
        <path id="Path_97" data-name="Path 97" d="M670.5,232.581c-9.8-3.7-30-9.9-30-9.9,0-.1,20.5,4.7,30.1,8.2a129.024,129.024,0,0,1,13.3,5.6c-7.8-7.4-19.8-11.2-29.7-14-6-1.7-29.7-4.5-29.8-2.7-.1,2.5,21.9,8,30,10.4,9.1,2.7,19.7,7.7,29.4,7.9C679.4,236.081,675,234.281,670.5,232.581Z" transform="translate(-556.1 -134.375)" fill="#fff"/>
        <path id="Path_98" data-name="Path 98" d="M706.6,173.265c-8.6-1-26.6-2.6-26.6-2.6a247.553,247.553,0,0,1,26.3.7c4.2.4,8.3,1.1,11.9,1.7-7.4-5.2-18.5-6-26.9-6.3-5.5-.2-25.5,2.2-25.2,4.2.3,2.5,20,3.9,26.8,4.4,7.7.6,18,2.5,25.6-.5C714.9,174.265,710.8,173.765,706.6,173.265Z" transform="translate(-556.1 -20.359)" fill="#fff"/>
        <path id="Path_99" data-name="Path 99" d="M705.5,193.73c-8.7-5.9-27-16.7-27-16.7,0-.1,19,9.5,27.5,15.1,4,2.7,7.9,5.6,11.7,8.6-5.9-9.1-16.8-15.7-25.7-20.8-5.5-3.1-27.9-11.3-28.4-9.6-.7,2.4,19.5,12.9,26.8,17.2,8.3,4.8,17.5,12.2,26.9,14.7C713.4,199.23,709.5,196.33,705.5,193.73Z" transform="translate(-556.1 -49.423)" fill="#fff"/>
        <path id="Path_100" data-name="Path 100" d="M706.1,278.3c4.1-15,7.8-48.9,7.8-48.9-.2,0-5.4,32.2-9.5,47.6-1.8,6.7-3.8,13.4-6.1,20.1.2-15.8,5.7-32.4,8.1-47.8,1.8-11.4,3.1-22.9,4.9-34.3.6-3.7,2.9-13.3,4-13.1,1.7.4,2.9,11.9,3.1,17.1a167.168,167.168,0,0,1-3,36.1c-2.5,13.4-5.9,32.3-15.6,43.1C702.1,291.7,704.3,285,706.1,278.3Z" transform="translate(-556.1 -177.197)" fill="#fff"/>
        <path id="Path_101" data-name="Path 101" d="M680.8,193.8c8,.2,16.6.2,24.3,3-6.3-.4-12.7-.5-19-.4C684.3,195.6,682.5,194.6,680.8,193.8Z" transform="translate(-556.1 -67.694)" fill="#fff"/>
        <path id="Path_102" data-name="Path 102" d="M618,196.561c-.6-1.9,30.5-11.7,41.2-13.2,5-.7,10.3-1.2,15.5-1.4a2.32,2.32,0,0,0,1.8,2.3,7.619,7.619,0,0,1,2,.6c-12.3.9-38,5.8-38,5.8,0,.1,27.7-3.6,41.7-4.2,1.3.7,2.7,1.4,4,2.1a5.941,5.941,0,0,1,.8.4c-8.4.6-16.9,1.3-25.3,2.2-10.3,1.1-20.5,2.7-30.8,4.4C626.8,196.161,618.1,196.761,618,196.561Z" transform="translate(-556.1 -55.655)" fill="#fff"/>
        <path id="Path_103" data-name="Path 103" d="M690,190.3c5.2,0,10.4.1,15.5.3-1.5.8-5.5,1.3-11.1,1.7A34.891,34.891,0,0,0,690,190.3Z" transform="translate(-556.1 -59.694)" fill="#fff"/>
        <path id="Path_104" data-name="Path 104" d="M695.9,254.219c-2.6-10.9-11.1-32.9-11.1-32.9-.1,0,6.7,21.7,9.4,32.6,1.2,4.7,2.2,9.6,3.1,14.4-5.5-9.7-7.8-21.8-11.2-32.3-2.5-7.7-9.9-31.9-8.9-32.3,2.2-.8,14.1,24,17,33.2,2.8,9.1,7.2,21.9,4.6,31.8C698,263.819,697,258.919,695.9,254.219Z" transform="translate(-556.1 -149.513)" fill="#fff"/>
        <path id="Path_105" data-name="Path 105" d="M726.3,207.7c-.2-11.3-3.7-34.7-3.7-34.7-.1,0,1.9,22.8,2.1,34.1.1,4.9.1,9.9-.1,14.9-3.2-10.8-2.9-23.2-4-34.3-.8-8.1-2.8-33.4-1.7-33.5,2.3-.3,8.6,26.6,9.4,36.2s2.3,23.1-2.4,32.3C726.3,217.6,726.4,212.5,726.3,207.7Z" transform="translate(-556.1 -53.996)" fill="#fff"/>
        <path id="Path_106" data-name="Path 106" d="M735,196.223c3.5-8.8,8.9-28.7,8.9-28.7-.2,0-6.8,18.4-10.3,27.3-1.7,4.3-3.4,8.3-5,11.8.2-9.8,4.7-20.2,7.6-29.3,2-6.3,9.8-26.5,11.7-25.7,3,1.2-1.6,24.4-4.5,32.5-2.6,7.3-6.4,19.1-13.6,23.8C731.5,204.523,733.3,200.523,735,196.223Z" transform="translate(-556.1 -36.617)" fill="#fff"/>
        <path id="Path_107" data-name="Path 107" d="M621.3,260.2c-5.5,1.8-16.9,5.3-16.9,5.3-.1-.1,10.5-5,15.8-6.9,2.6-.9,5.2-1.7,7.5-2.3-5.7-1.7-13.5.5-18.6,2.7-4,1.7-14.5,8.3-13.2,10.1,1.5,2.2,13.4-1.3,18.5-3.1,4.3-1.6,11.9-3.6,14.3-8.3C626.5,258.5,623.9,259.3,621.3,260.2Z" transform="translate(-556.1 -202.595)" fill="#fff"/>
      </g>
    </g>
    <g id="Group_63" data-name="Group 63" transform="translate(873 2214.105)" opacity="0.15">
      <path id="Path_132" data-name="Path 132" d="M749.8,156.7a8.279,8.279,0,0,0,10.9,3,8.115,8.115,0,0,0,3.5-3.6c-.2.1-.3.2-.5.3a6.8,6.8,0,0,1-6.4-12c.1,0,.1-.1.2-.1a8.881,8.881,0,0,0-4.5.9,8.3,8.3,0,0,0-3.5,3.7,10.359,10.359,0,0,1,5.1-6,10.735,10.735,0,1,1-4.5,14.5A4.87,4.87,0,0,0,749.8,156.7Z" transform="translate(-737.1 -141.635)" fill="#fff"/>
      <path id="Path_133" data-name="Path 133" d="M759.1,137.4a8.279,8.279,0,0,0,10.9,3,8.115,8.115,0,0,0,3.5-3.6c-.2.1-.3.2-.5.3a6.8,6.8,0,0,1-6.4-12c.1,0,.1-.1.2-.1a8.881,8.881,0,0,0-4.5.9,8.3,8.3,0,0,0-3.5,3.7,10.359,10.359,0,0,1,5.1-6,10.735,10.735,0,1,1-4.5,14.5A4.869,4.869,0,0,0,759.1,137.4Z" transform="translate(-737.1 -103.035)" fill="#fff"/>
      <path id="Path_134" data-name="Path 134" d="M737.4,140.4a8.279,8.279,0,0,0,10.9,3,8.115,8.115,0,0,0,3.5-3.6c-.2.1-.3.2-.5.3a6.8,6.8,0,0,1-6.4-12c.1,0,.1-.1.2-.1a8.88,8.88,0,0,0-4.5.9,8.3,8.3,0,0,0-3.5,3.7,10.359,10.359,0,0,1,5.1-6,10.735,10.735,0,1,1-4.5,14.5C737.6,140.9,737.5,140.6,737.4,140.4Z" transform="translate(-737.1 -109.035)" fill="#fff"/>
    </g>
  </g>
</svg>
