<svg xmlns="http://www.w3.org/2000/svg" width="232.747" height="262.647" viewBox="0 0 232.747 262.647">
  <g id="Group_66" data-name="Group 66" transform="translate(0)" opacity="0.15">
    <g id="Group_25" data-name="Group 25" transform="translate(0 0)">
      <path id="Path_89" data-name="Path 89" d="M775.519,110.841c-24.026,102.382-95.38,184.844-193.536,223-.242.121-.483,0-.483-.121s.121-.362.241-.362c96.225-39.48,165.526-122.062,187.379-223.72.483-2.656,2.294-4.588,4.1-4.226,1.811.241,2.777,2.777,2.173,5.433C775.519,110.72,775.519,110.841,775.519,110.841Z" transform="translate(-550.833 -105.364)" fill="#141d4c"/>
      <path id="Path_90" data-name="Path 90" d="M615.495,292.284c-10.866,9.417-36.582,25.958-36.582,25.958-.121-.121,24.026-17.506,35.013-27.044,4.829-4.1,9.538-8.451,14.126-12.8-12.8,6.157-24.147,17.265-35.5,25.475-8.451,6.157-17.265,11.953-25.716,18.11-3.139,2.294-9.779,8.331-9.538,8.693,1.449,2.294,32.6-14.367,42.378-21.611,10.383-7.727,24.147-17.506,29.821-29.942C624.912,283.833,620.2,288.179,615.495,292.284Z" transform="translate(-555.852 -69.487)" fill="#141d4c"/>
      <path id="Path_91" data-name="Path 91" d="M599.765,284.669c-7.968,1.328-24.147,3.5-24.147,3.5s16.178-1.207,24.026-2.415c3.864-.6,7.486-1.328,10.745-2.052-7.123,3.863-16.42,4.95-24.026,5.8-6.882.845-23.664-.6-23.664-.6,0-.845,16.782-3.381,24.388-4.346,7.486-.845,15.816-2.656,23.3-1.811C607.251,283.341,603.629,284.066,599.765,284.669Z" transform="translate(-554.732 -68.633)" fill="#141d4c"/>
      <path id="Path_92" data-name="Path 92" d="M622.982,284.6c-1.449,6.882-6.4,21.732-6.4,21.732-.242-.121,2.656-14.73,3.984-21.249.724-3.38,1.328-6.64,1.932-9.417-5.192,5.674-7.365,14.488-9.176,21.611-.966,3.984-3.5,20.766-.362,20.766,4.346,0,10.5-15.333,11.953-22.456,1.087-5.554,3.743-14.971-.362-20.283A78.74,78.74,0,0,1,622.982,284.6Z" transform="translate(-544.626 -70.129)" fill="#141d4c"/>
      <path id="Path_93" data-name="Path 93" d="M646.006,302.89c-.121-.121,10.262-18.231,15.092-27.407v.241a34.382,34.382,0,0,0,4.1-7.365c0-.121.121-.121.121-.241a2.357,2.357,0,0,0-.121-.845c1.69-3.5,3.381-7.244,5.071-10.987,3.018-6.882,5.8-13.884,8.451-20.887-6.037,7.365-9.9,16.9-14.367,25.233-.724-3.984-1.69-6.64-2.656-7.606.121,3.984,0,8.21-.121,12.8-.966,1.811-1.932,3.622-3.018,5.433.362-5.8.6-11.59.724-17.506-3.863,8.089-4.588,18.231-6.037,27.044-.121.121-.121.241-.241.362-6.157,10.745-12.8,21.37-19.076,32.115-1.932,3.381-6.761,13.281-5.916,13.884,2.294,1.328,16.178-14.488,21.249-20.887-1.207,7.727-4.467,34.409-1.328,34.771,5.554.6,14.85-35.134,16.42-46.845a131.047,131.047,0,0,0,1.087-13.281c6.52-12.677,16.782-30.546,15.333-45.517-2.415,7.123-5.071,14.247-8.089,21.008C665.927,271.982,646.006,302.89,646.006,302.89Zm7.968,13.884c-.121,0,1.449-13.764,2.294-20.4,1.087-1.57,2.052-3.26,3.139-4.829C658.2,299.63,653.975,316.775,653.975,316.775Z" transform="translate(-541.209 -78.402)" fill="#141d4c"/>
      <path id="Path_94" data-name="Path 94" d="M657.531,250.337c7.123-1.57,14.126-3.5,21.249-5.554-14.005-1.932-31.029,3.743-44.913,5.674-3.622-1.328-7.606-2.656-11.59-4.1-10.021-3.5-38.152-14.367-39.963-11.47-1.57,2.535,19.8,15.575,26.2,18.593-6.882.724-22.819,2.656-23.06,4.226-.483,3.26,36.341,4.588,45.4,3.622h.362c8.331,2.173,18.11,4.226,26.682,2.415-5.554-1.087-11.228-2.415-16.661-3.984,1.932-.362,3.863-.724,5.8-1.207,4.346,1.087,8.451,2.052,12.315,3.018-.724-1.207-3.139-2.656-6.882-4.226,8.934-2.535,18.714-4.95,26.441-10.5q-10.5,3.26-21.37,5.8-5.8,1.268-11.228,2.173a1.716,1.716,0,0,0-.724-.241h-.241a28.468,28.468,0,0,0-7.606,1.57h.121c-8.934,1.087-27.648,1.69-27.648,1.69C610.083,257.7,642.077,253.839,657.531,250.337Zm-34.168,1.449c-1.69.241-3.26.362-4.829.6-5.675-2.294-16.9-7.968-16.9-7.968C601.511,244.3,616.12,249.371,623.364,251.786Z" transform="translate(-550.682 -78.61)" fill="#141d4c"/>
      <path id="Path_95" data-name="Path 95" d="M618.882,275.331c-13.281,3.139-40.808,7.365-40.808,7.365,0,.121,27.89-2.656,40.687-5.554,6.037-1.328,12.073-3.018,17.989-4.829-11.47,7.848-27.286,10.5-40.446,12.436-9.9,1.449-40.2.362-40.2-.966.121-2.535,29.58-5.8,41.05-7.606,12.556-1.932,26.682-6.52,39.48-5.554C630.834,272.434,624.8,273.883,618.882,275.331Z" transform="translate(-556.1 -71.127)" fill="#141d4c"/>
      <path id="Path_96" data-name="Path 96" d="M681.777,218.3c-10.383-1.328-31.874-4.467-31.874-4.467,0,.241,21.128,5.312,30.908,6.64,5.071.724,10.021,1.087,14.367,1.328-10.142,3.984-23.3,1.69-33.2-.362-6.52-1.328-29.218-9.779-28.373-12.073,1.087-2.777,24.509,1.087,32.6,2.535,9.176,1.57,21.732,2.294,29.821,7.848C691.8,219.389,686.848,218.906,681.777,218.3Z" transform="translate(-540.035 -84.003)" fill="#141d4c"/>
      <path id="Path_97" data-name="Path 97" d="M680.058,225.84c-11.832,4.467-36.22,11.953-36.22,11.953,0,.121,24.75-5.674,36.341-9.9a155.771,155.771,0,0,0,16.058-6.761c-9.417,8.934-23.905,13.522-35.858,16.9-7.244,2.052-35.858,5.433-35.979,3.26-.121-3.018,26.441-9.659,36.22-12.556,10.987-3.26,23.785-9.3,35.5-9.538C690.8,221.615,685.492,223.788,680.058,225.84Z" transform="translate(-541.939 -81.761)" fill="#141d4c"/>
      <path id="Path_98" data-name="Path 98" d="M715,170.673c-10.383,1.207-32.115,3.139-32.115,3.139,0,.241,21.853.241,31.753-.845,5.071-.483,10.021-1.328,14.367-2.052-8.934,6.278-22.336,7.244-32.477,7.606-6.64.241-30.787-2.656-30.425-5.071.362-3.018,24.147-4.709,32.357-5.312,9.3-.724,21.732-3.018,30.908.6C725.019,169.466,720.069,170.069,715,170.673Z" transform="translate(-533.293 -92.635)" fill="#141d4c"/>
      <path id="Path_99" data-name="Path 99" d="M714.191,180.362c-10.5,7.123-32.6,20.163-32.6,20.163,0,.121,22.94-11.47,33.2-18.231,4.829-3.26,9.538-6.761,14.126-10.383-7.123,10.987-20.283,18.955-31.029,25.113-6.64,3.743-33.685,13.643-34.288,11.59-.845-2.9,23.543-15.575,32.357-20.766,10.021-5.8,21.128-14.73,32.477-17.748C723.729,173.722,719.021,177.223,714.191,180.362Z" transform="translate(-533.815 -91.941)" fill="#141d4c"/>
      <path id="Path_100" data-name="Path 100" d="M707.717,225.926c4.95,18.11,9.417,59.039,9.417,59.039-.241,0-6.52-38.876-11.47-57.469-2.173-8.089-4.588-16.178-7.365-24.268.241,19.076,6.882,39.118,9.779,57.711,2.173,13.764,3.743,27.648,5.916,41.412.724,4.467,3.5,16.058,4.829,15.816,2.052-.483,3.5-14.367,3.743-20.646a201.834,201.834,0,0,0-3.622-43.585c-3.018-16.178-7.123-39-18.835-52.036C702.888,209.748,705.544,217.837,707.717,225.926Z" transform="translate(-526.617 -85.348)" fill="#141d4c"/>
      <path id="Path_101" data-name="Path 101" d="M680.8,197.422c9.659-.241,20.042-.241,29.338-3.622-7.606.483-15.333.6-22.939.483C685.026,195.249,682.853,196.456,680.8,197.422Z" transform="translate(-530.245 -87.028)" fill="#141d4c"/>
      <path id="Path_102" data-name="Path 102" d="M618,182.008c-.724,2.294,36.824,14.126,49.742,15.937,6.037.845,12.436,1.449,18.714,1.69a2.8,2.8,0,0,1,2.173-2.777,9.2,9.2,0,0,0,2.415-.724c-14.85-1.087-45.879-7-45.879-7,0-.121,33.443,4.346,50.346,5.071,1.57-.845,3.26-1.69,4.829-2.535a7.168,7.168,0,0,0,.966-.483c-10.142-.724-20.4-1.57-30.546-2.656-12.436-1.328-24.75-3.26-37.186-5.312C628.626,182.491,618.122,181.767,618,182.008Z" transform="translate(-543.268 -89.482)" fill="#141d4c"/>
      <path id="Path_103" data-name="Path 103" d="M690,192.715c6.278,0,12.556-.121,18.714-.362-1.811-.966-6.64-1.57-13.4-2.052A42.125,42.125,0,0,1,690,192.715Z" transform="translate(-528.337 -87.753)" fill="#141d4c"/>
      <path id="Path_104" data-name="Path 104" d="M699.8,221.206c-3.139,13.16-13.4,39.721-13.4,39.721-.121,0,8.089-26.2,11.349-39.359,1.449-5.674,2.656-11.59,3.743-17.386-6.64,11.711-9.417,26.32-13.522,39-3.018,9.3-11.953,38.514-10.745,39,2.656.966,17.023-28.976,20.525-40.084,3.381-10.987,8.693-26.441,5.554-38.393C702.332,209.616,701.125,215.532,699.8,221.206Z" transform="translate(-531.011 -84.975)" fill="#141d4c"/>
      <path id="Path_105" data-name="Path 105" d="M727.9,172.31c-.242,13.643-4.467,41.895-4.467,41.895-.121,0,2.294-27.527,2.535-41.17.121-5.916.121-11.953-.121-17.989-3.864,13.039-3.5,28.01-4.829,41.412-.966,9.779-3.38,40.325-2.052,40.446,2.777.362,10.383-32.115,11.349-43.706s2.777-27.89-2.9-39C727.9,160.357,728.022,166.515,727.9,172.31Z" transform="translate(-522.412 -95.238)" fill="#141d4c"/>
      <path id="Path_106" data-name="Path 106" d="M736.327,165.726c4.226,10.625,10.745,34.651,10.745,34.651-.242,0-8.21-22.215-12.436-32.96-2.052-5.192-4.1-10.021-6.037-14.247.241,11.832,5.674,24.388,9.176,35.375,2.415,7.606,11.832,31.994,14.126,31.029,3.622-1.449-1.932-29.459-5.433-39.239-3.139-8.814-7.727-23.06-16.42-28.735C732.1,155.7,734.275,160.534,736.327,165.726Z" transform="translate(-520.334 -95.777)" fill="#141d4c"/>
      <path id="Path_107" data-name="Path 107" d="M626.589,267.291c-6.64-2.173-20.4-6.4-20.4-6.4-.121.121,12.677,6.037,19.076,8.331,3.139,1.087,6.278,2.052,9.055,2.777-6.882,2.052-16.3-.6-22.456-3.26-4.829-2.052-17.506-10.021-15.937-12.194,1.811-2.656,16.178,1.57,22.336,3.743,5.192,1.932,14.367,4.346,17.265,10.021C632.868,269.344,629.729,268.378,626.589,267.291Z" transform="translate(-547.871 -74.194)" fill="#141d4c"/>
    </g>
  </g>
</svg>
