<svg xmlns="http://www.w3.org/2000/svg" width="232.747" height="262.647" viewBox="0 0 232.747 262.647">
  <g id="Group_65" data-name="Group 65" transform="translate(0)" opacity="0.15">
    <g id="Group_25" data-name="Group 25" transform="translate(0 0)">
      <path id="Path_89" data-name="Path 89" d="M581.559,328.409c24.026-102.382,95.38-184.844,193.536-223,.242-.121.483,0,.483.121s-.121.362-.241.362c-96.225,39.48-165.526,122.062-187.379,223.72-.483,2.656-2.294,4.588-4.1,4.226-1.811-.241-2.777-2.777-2.173-5.433C581.559,328.53,581.559,328.409,581.559,328.409Z" transform="translate(-573.497 -71.239)" fill="#141d4c"/>
      <path id="Path_90" data-name="Path 90" d="M571.3,317.008c10.866-9.417,36.582-25.958,36.582-25.958.121.121-24.026,17.506-35.013,27.044-4.829,4.1-9.538,8.451-14.126,12.8,12.8-6.157,24.147-17.265,35.5-25.475,8.451-6.157,17.265-11.953,25.716-18.11,3.139-2.294,9.779-8.331,9.538-8.693-1.449-2.294-32.6,14.367-42.378,21.611-10.383,7.727-24.147,17.506-29.821,29.942C561.883,325.46,566.591,321.113,571.3,317.008Z" transform="translate(-398.195 -277.159)" fill="#141d4c"/>
      <path id="Path_91" data-name="Path 91" d="M573.325,287.612c7.968-1.328,24.147-3.5,24.147-3.5s-16.178,1.207-24.026,2.415c-3.864.6-7.486,1.328-10.745,2.052,7.123-3.863,16.42-4.95,24.026-5.8,6.882-.845,23.664.6,23.664.6,0,.845-16.782,3.381-24.388,4.346-7.486.845-15.816,2.656-23.3,1.811C565.839,288.94,569.461,288.216,573.325,287.612Z" transform="translate(-385.611 -241.002)" fill="#141d4c"/>
      <path id="Path_92" data-name="Path 92" d="M615.223,308.743c1.449-6.882,6.4-21.732,6.4-21.732.242.121-2.656,14.73-3.984,21.249-.724,3.38-1.328,6.64-1.932,9.417,5.192-5.674,7.365-14.488,9.176-21.611.966-3.984,3.5-20.766.362-20.766-4.346,0-10.5,15.333-11.953,22.456-1.087,5.554-3.743,14.971.362,20.283A78.74,78.74,0,0,1,615.223,308.743Z" transform="translate(-460.832 -260.563)" fill="#141d4c"/>
      <path id="Path_93" data-name="Path 93" d="M662.828,273.559c.121.121-10.262,18.231-15.092,27.407v-.241a34.382,34.382,0,0,0-4.1,7.365c0,.121-.121.121-.121.241a2.357,2.357,0,0,0,.121.845c-1.69,3.5-3.381,7.244-5.071,10.987-3.018,6.882-5.8,13.884-8.451,20.887,6.037-7.365,9.9-16.9,14.367-25.233.724,3.984,1.69,6.64,2.656,7.606-.121-3.984,0-8.21.121-12.8.966-1.811,1.932-3.622,3.018-5.433-.362,5.8-.6,11.59-.724,17.506,3.863-8.089,4.588-18.231,6.037-27.044.121-.121.121-.241.241-.362,6.157-10.745,12.8-21.37,19.076-32.115,1.932-3.381,6.761-13.281,5.916-13.884-2.294-1.328-16.178,14.488-21.249,20.887,1.207-7.727,4.467-34.409,1.328-34.771-5.554-.6-14.85,35.134-16.42,46.845a131.047,131.047,0,0,0-1.087,13.281c-6.52,12.677-16.782,30.546-15.333,45.517,2.415-7.123,5.071-14.247,8.089-21.008C642.907,304.467,662.828,273.559,662.828,273.559Zm-7.968-13.884c.121,0-1.449,13.764-2.294,20.4-1.087,1.57-2.052,3.26-3.139,4.829C650.634,276.819,654.86,259.675,654.86,259.675Z" transform="translate(-534.878 -235.4)" fill="#141d4c"/>
      <path id="Path_94" data-name="Path 94" d="M603.6,248.495c-7.123,1.57-14.126,3.5-21.249,5.554,14.005,1.932,31.029-3.743,44.913-5.674,3.622,1.328,7.606,2.656,11.59,4.1,10.021,3.5,38.152,14.367,39.963,11.47,1.57-2.535-19.8-15.575-26.2-18.593,6.882-.724,22.819-2.656,23.06-4.226.483-3.26-36.341-4.588-45.4-3.622h-.362c-8.331-2.173-18.11-4.226-26.682-2.415,5.554,1.087,11.228,2.415,16.661,3.984-1.932.362-3.863.724-5.8,1.207-4.346-1.087-8.451-2.052-12.315-3.018.724,1.207,3.139,2.656,6.882,4.226-8.934,2.535-18.714,4.95-26.441,10.5q10.5-3.26,21.37-5.8,5.8-1.268,11.228-2.173a1.716,1.716,0,0,0,.724.241h.241a28.468,28.468,0,0,0,7.606-1.57h-.121c8.934-1.087,27.648-1.69,27.648-1.69C651.05,241.13,619.056,244.993,603.6,248.495Zm34.168-1.449c1.69-.241,3.26-.362,4.829-.6,5.675,2.294,16.9,7.968,16.9,7.968C659.622,254.531,645.014,249.461,637.77,247.046Z" transform="translate(-477.704 -157.575)" fill="#141d4c"/>
      <path id="Path_95" data-name="Path 95" d="M573.969,280.6c13.281-3.139,40.808-7.365,40.808-7.365,0-.121-27.89,2.656-40.687,5.554-6.037,1.328-12.073,3.018-17.989,4.829,11.47-7.848,27.286-10.5,40.446-12.436,9.9-1.449,40.2-.362,40.2.966-.121,2.535-29.58,5.8-41.05,7.606-12.556,1.932-26.682,6.52-39.48,5.554C562.016,283.494,568.053,282.045,573.969,280.6Z" transform="translate(-404.003 -222.154)" fill="#141d4c"/>
      <path id="Path_96" data-name="Path 96" d="M647.827,214.075c10.383,1.328,31.874,4.467,31.874,4.467,0-.241-21.128-5.312-30.908-6.64-5.071-.724-10.021-1.087-14.367-1.328,10.142-3.984,23.3-1.69,33.2.362,6.52,1.328,29.218,9.779,28.373,12.073-1.087,2.777-24.509-1.087-32.6-2.535-9.176-1.57-21.732-2.294-29.821-7.848C637.806,212.989,642.757,213.471,647.827,214.075Z" transform="translate(-556.822 -85.727)" fill="#141d4c"/>
      <path id="Path_97" data-name="Path 97" d="M640.578,235.356C652.41,230.889,676.8,223.4,676.8,223.4c0-.121-24.75,5.674-36.341,9.9a155.771,155.771,0,0,0-16.058,6.761c9.417-8.934,23.905-13.522,35.858-16.9,7.244-2.052,35.858-5.433,35.979-3.26.121,3.018-26.441,9.659-36.22,12.556-10.987,3.26-23.785,9.3-35.5,9.538C629.833,239.582,635.145,237.408,640.578,235.356Z" transform="translate(-545.95 -116.788)" fill="#141d4c"/>
      <path id="Path_98" data-name="Path 98" d="M680.464,174.615c10.383-1.207,32.115-3.139,32.115-3.139,0-.241-21.853-.241-31.753.845-5.071.483-10.021,1.328-14.367,2.052,8.934-6.278,22.336-7.244,32.477-7.606,6.64-.241,30.787,2.656,30.425,5.071-.362,3.018-24.147,4.709-32.357,5.312-9.3.724-21.732,3.018-30.908-.6C670.443,175.823,675.393,175.219,680.464,174.615Z" transform="translate(-629.421 9.994)" fill="#141d4c"/>
      <path id="Path_99" data-name="Path 99" d="M678.312,198.629c10.5-7.123,32.6-20.163,32.6-20.163,0-.121-22.94,11.47-33.2,18.231-4.829,3.26-9.538,6.761-14.126,10.383,7.123-10.987,20.283-18.955,31.029-25.113,6.64-3.743,33.685-13.643,34.288-11.59.845,2.9-23.543,15.575-32.357,20.766-10.021,5.8-21.128,14.73-32.477,17.748C668.774,205.269,673.482,201.768,678.312,198.629Z" transform="translate(-625.941 -24.402)" fill="#141d4c"/>
      <path id="Path_100" data-name="Path 100" d="M713.242,294.144c-4.95-18.11-9.417-59.039-9.417-59.039.241,0,6.52,38.876,11.47,57.469,2.173,8.089,4.588,16.178,7.365,24.268-.241-19.076-6.882-39.118-9.779-57.711-2.173-13.764-3.743-27.648-5.916-41.412-.724-4.467-3.5-16.058-4.829-15.816-2.052.483-3.5,14.367-3.743,20.646a201.834,201.834,0,0,0,3.622,43.585c3.018,16.178,7.123,39,18.835,52.036C718.072,310.323,715.416,302.234,713.242,294.144Z" transform="translate(-661.596 -172.075)" fill="#141d4c"/>
      <path id="Path_101" data-name="Path 101" d="M710.138,193.8c-9.659.241-20.042.241-29.338,3.622,7.606-.483,15.333-.6,22.939-.483C705.913,195.973,708.086,194.766,710.138,193.8Z" transform="translate(-627.946 -41.547)" fill="#141d4c"/>
      <path id="Path_102" data-name="Path 102" d="M701.3,199.588c.724-2.294-36.824-14.126-49.742-15.937-6.037-.845-12.436-1.449-18.714-1.69a2.8,2.8,0,0,1-2.173,2.777,9.2,9.2,0,0,0-2.415.724c14.85,1.087,45.879,7,45.879,7,0,.121-33.443-4.346-50.346-5.071-1.57.845-3.26,1.69-4.829,2.535a7.168,7.168,0,0,0-.966.483c10.142.724,20.4,1.57,30.546,2.656,12.436,1.328,24.75,3.26,37.186,5.312C690.673,199.1,701.177,199.829,701.3,199.588Z" transform="translate(-543.285 -29.466)" fill="#141d4c"/>
      <path id="Path_103" data-name="Path 103" d="M708.714,190.3c-6.278,0-12.556.121-18.714.362,1.811.966,6.64,1.57,13.4,2.052A42.125,42.125,0,0,1,708.714,190.3Z" transform="translate(-637.629 -32.614)" fill="#141d4c"/>
      <path id="Path_104" data-name="Path 104" d="M681.565,264.694c3.139-13.16,13.4-39.721,13.4-39.721.121,0-8.089,26.2-11.349,39.359-1.449,5.674-2.656,11.59-3.743,17.386,6.64-11.711,9.417-26.32,13.522-39,3.018-9.3,11.953-38.514,10.745-39-2.656-.966-17.023,28.976-20.525,40.084-3.381,10.987-8.693,26.441-5.554,38.393C679.03,276.284,680.237,270.368,681.565,264.694Z" transform="translate(-617.604 -138.278)" fill="#141d4c"/>
      <path id="Path_105" data-name="Path 105" d="M722.051,218.8c.242-13.643,4.467-41.895,4.467-41.895.121,0-2.294,27.527-2.535,41.17-.121,5.916-.121,11.953.121,17.989,3.864-13.039,3.5-28.01,4.829-41.412.966-9.779,3.38-40.325,2.052-40.446-2.777-.362-10.383,32.115-11.349,43.706s-2.777,27.89,2.9,39C722.051,230.748,721.93,224.591,722.051,218.8Z" transform="translate(-694.792 -33.22)" fill="#141d4c"/>
      <path id="Path_106" data-name="Path 106" d="M745.354,205.475c-4.226-10.625-10.745-34.651-10.745-34.651.242,0,8.21,22.215,12.436,32.96,2.052,5.192,4.1,10.021,6.037,14.247-.241-11.832-5.674-24.388-9.176-35.375-2.415-7.606-11.832-31.994-14.126-31.029-3.622,1.449,1.932,29.459,5.433,39.239,3.139,8.814,7.727,23.06,16.42,28.735C749.58,215.5,747.407,210.667,745.354,205.475Z" transform="translate(-728.6 -12.776)" fill="#141d4c"/>
      <path id="Path_107" data-name="Path 107" d="M604.724,261.135c6.64,2.173,20.4,6.4,20.4,6.4.121-.121-12.677-6.037-19.076-8.331-3.139-1.087-6.278-2.052-9.055-2.777,6.882-2.052,16.3.6,22.456,3.26,4.829,2.052,17.506,10.021,15.937,12.194-1.811,2.656-16.178-1.57-22.336-3.743-5.192-1.932-14.367-4.346-17.265-10.021C598.445,259.083,601.584,260.048,604.724,261.135Z" transform="translate(-450.695 -191.585)" fill="#141d4c"/>
    </g>
  </g>
</svg>
